<svg width="800" height="249" viewBox="0 0 800 249" fill="none" xmlns="http://www.w3.org/2000/svg">
<g clip-path="url(#clip0_5_2)">
<rect width="800" height="249" rx="6" fill="#C0C7E5"/>
<g clip-path="url(#clip1_5_2)">
<path d="M687.703 246.211L687.969 240.215C687.997 240.2 688.024 240.186 688.052 240.171C690.906 238.672 694.177 241.386 693.266 244.481C692.408 247.394 691.832 250.533 690.262 253.082C689.334 254.563 688.085 255.816 686.608 256.747C685.131 257.679 683.464 258.266 681.73 258.465L678.104 260.688C677.606 257.911 677.716 255.059 678.425 252.328C679.134 249.597 680.427 247.053 682.213 244.871C683.227 243.656 684.39 242.575 685.674 241.651C686.542 243.944 687.703 246.211 687.703 246.211Z" fill="#F2F2F2"/>
<path d="M720.168 185.36C727.149 178.152 737.266 174.018 747.924 174.018L748.335 174.019C755.356 174.022 762.251 172.157 768.315 168.617L768.946 168.249L768.438 167.724C765.686 164.874 763.389 161.617 761.625 158.067C762.878 159.236 764.371 160.115 766 160.642C767.63 161.169 769.355 161.331 771.053 161.117C772.846 160.903 774.568 160.285 776.089 159.31C777.61 158.334 778.89 157.027 779.834 155.485C783.56 149.434 788 140.848 788 134.306C787.994 128.777 786.838 123.31 784.605 118.254C782.372 113.197 779.111 108.661 775.03 104.936C772.446 102.604 770.383 99.7526 768.974 96.5682C767.565 93.3839 766.842 89.9381 766.852 86.4553L766.854 85.9596C766.855 81.3743 766.295 76.8061 765.188 72.3568L765.075 71.9076L764.613 71.9237C761.636 72.0251 758.657 71.7753 755.738 71.1793C758.476 70.843 761.155 70.1297 763.698 69.0597L764.194 68.8585L764.026 68.3489C752.406 61.1457 726.176 64.8759 710.952 30.0019C698.607 1.72379 655.05 55.1044 655.05 85.9596C655.05 89.108 658.162 93.2686 655.832 95.3495C630.647 117.845 648.024 132.29 653.503 146.825C654.803 150.273 651.984 154.059 651.984 157.79C651.984 158.423 652.001 159.077 652.032 159.733L652.081 160.741L652.921 160.181C654.582 159.092 656.122 157.827 657.514 156.409C656.07 159.737 655.389 163.347 655.522 166.972C655.655 170.598 656.598 174.148 658.283 177.36C660.922 182.348 663.475 185.918 665.872 187.972C673.549 194.549 683.445 197.942 693.538 197.457C703.63 196.971 713.156 192.644 720.168 185.36Z" fill="#E6E6E6"/>
<path d="M678.003 260.392C677.832 260.392 677.666 260.33 677.536 260.217C677.407 260.104 677.322 259.949 677.298 259.779C677.268 259.565 674.299 238.131 676.965 209.644C679.427 183.335 687.334 145.442 711.019 114.32C711.076 114.245 711.147 114.183 711.228 114.135C711.309 114.088 711.399 114.057 711.491 114.045C711.584 114.032 711.679 114.038 711.769 114.062C711.86 114.086 711.945 114.127 712.02 114.184C712.094 114.241 712.157 114.312 712.204 114.393C712.251 114.474 712.282 114.564 712.294 114.657C712.307 114.75 712.301 114.845 712.277 114.935C712.253 115.026 712.211 115.111 712.154 115.186C688.673 146.039 680.83 183.654 678.386 209.777C675.735 238.099 678.68 259.366 678.71 259.577C678.725 259.679 678.717 259.782 678.688 259.88C678.659 259.978 678.609 260.069 678.542 260.146C678.475 260.223 678.392 260.285 678.299 260.328C678.206 260.37 678.105 260.392 678.003 260.392Z" fill="#3F3D56"/>
<path d="M697.332 158.218C697.181 158.218 697.034 158.171 696.912 158.082C696.79 157.994 696.7 157.869 696.653 157.725C696.606 157.582 696.606 157.427 696.653 157.284C696.699 157.14 696.79 157.015 696.912 156.926C696.998 156.864 705.663 150.613 718.617 145.865C730.591 141.475 748.801 137.496 767.547 143.469C767.637 143.498 767.72 143.543 767.791 143.604C767.863 143.664 767.922 143.738 767.965 143.822C768.009 143.905 768.035 143.996 768.043 144.09C768.051 144.183 768.04 144.277 768.012 144.367C767.983 144.456 767.938 144.539 767.877 144.611C767.817 144.683 767.743 144.742 767.659 144.785C767.576 144.828 767.485 144.854 767.391 144.862C767.298 144.87 767.204 144.859 767.115 144.83C748.752 138.98 730.873 142.893 719.107 147.206C706.338 151.887 697.835 158.021 697.751 158.082C697.629 158.171 697.482 158.218 697.332 158.218Z" fill="#3F3D56"/>
<path d="M664.684 76.8077C664.673 76.6573 664.71 76.5072 664.789 76.379C664.869 76.2508 664.987 76.1512 665.126 76.0943C665.266 76.0374 665.42 76.0262 665.566 76.0623C665.712 76.0984 665.844 76.18 665.941 76.2953C666.009 76.3767 672.86 84.5791 678.524 97.1727C683.759 108.815 689.034 126.712 684.434 145.862C684.389 146.046 684.274 146.205 684.113 146.304C683.951 146.403 683.757 146.433 683.573 146.389C683.389 146.345 683.231 146.229 683.132 146.068C683.033 145.906 683.002 145.712 683.047 145.528C687.553 126.77 682.367 109.198 677.223 97.7591C671.64 85.3453 664.917 77.296 664.85 77.2161C664.753 77.101 664.695 76.958 664.684 76.8077Z" fill="#3F3D56"/>
<path d="M665.649 113.633C665.047 118.495 661.683 122.503 656.79 122.503C654.44 122.503 652.187 121.569 650.525 119.905C648.864 118.242 647.93 115.986 647.93 113.633C647.93 108.735 651.918 105.216 656.79 104.763C661.959 104.283 666.422 107.392 665.649 113.633Z" fill="#2F2E41"/>
<path d="M652.686 256.485L649.313 256.485L647.708 243.456L652.687 243.457L652.686 256.485Z" fill="#FFB6B6"/>
<path d="M665.976 256.485L662.602 256.485L660.997 243.456L665.976 243.457L665.976 256.485Z" fill="#FFB6B6"/>
<path d="M641.076 174.884L638.691 183.072L641.501 217.748C641.501 217.748 640.054 219.917 641.076 219.917C642.099 219.917 643.409 220.397 642.584 221.692C641.758 222.987 644.58 227.635 644.58 227.635L648.573 252.326L653.66 252.251C653.66 252.251 656.246 250.809 654.795 249.35C653.343 247.891 652.321 247.891 653.684 246.527C655.047 245.162 655.047 245.573 655.047 244.515C655.047 243.456 656.413 230.522 653.174 225.56L654.15 205.332L656.448 225.174L661.181 251.644L666.081 251.604C666.081 251.604 668.345 249.419 668.341 247.802C668.336 246.186 666.942 246.051 667.98 245.095C669.018 244.139 669.018 229.447 665.951 221.281C665.951 221.281 664.216 216.719 665.955 215.155C667.694 213.592 665.957 211.803 665.957 211.803C665.957 211.803 663.203 210.806 665.96 207.935C668.716 205.063 665.975 184.753 665.975 184.753C665.975 184.753 668.988 176.555 665.936 173.332C662.884 170.108 641.076 174.884 641.076 174.884Z" fill="#2F2E41"/>
<path d="M683.559 188.991L679.304 178.694L675.951 180.559L677.975 191.033C677.773 191.697 677.759 192.404 677.935 193.075C678.112 193.746 678.472 194.355 678.975 194.832C679.478 195.31 680.104 195.637 680.783 195.778C681.462 195.918 682.166 195.867 682.817 195.629C683.468 195.391 684.04 194.975 684.468 194.43C684.896 193.884 685.164 193.229 685.241 192.54C685.318 191.85 685.202 191.153 684.905 190.526C684.608 189.899 684.142 189.367 683.559 188.991Z" fill="#FFB6B6"/>
<path d="M612.147 107.567L618.622 116.631L621.466 114.054L617.123 104.311C617.17 103.618 617.024 102.927 616.7 102.313C616.376 101.7 615.888 101.189 615.29 100.838C614.692 100.487 614.008 100.31 613.315 100.327C612.622 100.344 611.948 100.554 611.367 100.933C610.787 101.313 610.324 101.847 610.031 102.476C609.737 103.104 609.624 103.803 609.705 104.492C609.786 105.181 610.058 105.834 610.489 106.377C610.92 106.921 611.494 107.333 612.147 107.567Z" fill="#FFB6B6"/>
<path d="M640.434 175.724C636.234 182.246 657.346 190.523 665.446 187.2C666.865 186.618 671.744 184.696 668.409 182.032C665.074 179.367 668.796 178.992 668.884 177.258C668.942 176.098 668.046 173.554 668.981 173.663C669.917 173.772 671.012 172.168 668.974 171.478C666.937 170.788 668.953 170.159 668.935 169.504C668.74 162.355 663.261 150.984 663.261 150.984L673.133 176.248C673.133 176.248 673.06 180.619 674.319 179.284C675.578 177.948 675.486 182.271 675.486 182.271C675.486 182.271 677.358 183.579 676.282 184.307C675.205 185.035 677.441 187.273 677.441 187.273L682.656 186.9C682.656 186.9 682.575 183.021 681.684 182.163C680.794 181.305 681.231 179.955 681.231 179.955C681.231 179.955 678.913 177.9 680.467 176.232C682.466 174.086 675.177 137.841 672.662 138.2C672.306 136.467 671.479 134.867 670.271 133.575C669.064 132.284 667.523 131.352 665.819 130.882L660.186 129.329L659.186 125.356H651.253L649.872 127.966L643.841 130.691C642.705 129.087 641.856 127.396 637.205 126.847C637.205 126.847 624.671 115.43 625.283 114.539C625.895 113.647 623.952 111.56 623.952 111.56C623.952 111.56 622.293 111.016 623.229 110.726C624.166 110.436 622.396 109.764 622.396 109.764C622.396 109.764 620.757 109.333 621.53 108.765C622.303 108.198 618.95 107.825 618.95 107.825L614.6 111.378L615.479 112.871C615.479 112.871 614.943 114.904 615.642 114.162C616.342 113.42 616.474 115.573 616.474 115.573C616.474 115.573 616.831 117.931 618.95 118.642C621.069 119.352 622.675 126.101 622.675 126.101C627.672 132.606 633.57 137.681 640.558 141.021C637.834 144.151 640.434 175.724 640.434 175.724Z" fill="#0069D9"/>
<path d="M655.811 123.03C651.472 123.03 647.954 119.509 647.954 115.165C647.954 110.82 651.472 107.299 655.811 107.299C660.149 107.299 663.667 110.82 663.667 115.165C663.667 119.509 660.149 123.03 655.811 123.03Z" fill="#FFB6B6"/>
<path d="M663.946 116.021C663.697 117.731 662.242 120.115 662.583 120.115C662.923 120.115 665.346 113.069 662.923 112.61C661.166 112.277 660.773 112.569 659.131 111.856L659.362 112.074C658.276 112.866 656.763 112.378 655.522 111.863C654.279 111.351 652.769 110.863 651.679 111.651C650.994 112.146 650.704 113.006 650.278 113.736C649.852 114.469 649.065 115.162 648.254 114.937C647.603 114.756 647.228 114.026 647.232 113.35C647.235 112.675 648.114 112.032 647.818 111.426C646.941 109.63 647.73 108.406 649.641 107.561C650.336 107.455 651.031 107.347 651.726 107.237C651.362 106.732 650.92 106.287 650.418 105.92C650.63 105.375 650.997 104.904 651.474 104.565C652.03 104.235 652.718 104.258 653.362 104.293C654.8 104.368 656.237 104.443 657.672 104.518C658.736 104.572 659.836 104.637 660.787 105.125C661.973 105.736 662.75 106.926 663.315 108.137C664.583 110.86 664.382 113.05 663.946 116.021Z" fill="#2F2E41"/>
<path d="M724.572 225.486C724.429 224.506 725.455 223.545 726.862 223.34C728.269 223.135 729.526 223.764 729.668 224.744C729.811 225.724 728.785 226.685 727.378 226.89C725.971 227.095 724.714 226.466 724.572 225.486Z" fill="#E6E6E6"/>
<path d="M707.817 223.849C707.674 222.869 708.7 221.909 710.107 221.704C711.514 221.499 712.77 222.127 712.913 223.107C713.055 224.087 712.03 225.048 710.623 225.253C709.215 225.458 707.959 224.83 707.817 223.849Z" fill="#3F3D56"/>
<path d="M729.16 211.906C729.018 210.925 730.043 209.965 731.45 209.76C732.857 209.555 734.114 210.183 734.256 211.163C734.399 212.143 733.373 213.104 731.966 213.309C730.559 213.514 729.302 212.886 729.16 211.906Z" fill="#FF6584"/>
<path d="M736.441 206.343C736.434 205.443 736.935 204.71 737.56 204.705C738.185 204.7 738.698 205.426 738.705 206.326C738.711 207.225 738.21 207.959 737.585 207.963C736.96 207.968 736.447 207.242 736.441 206.343Z" fill="#E6E6E6"/>
<path d="M738.91 195.981C738.903 195.081 739.404 194.348 740.029 194.343C740.654 194.339 741.167 195.064 741.174 195.964C741.18 196.864 740.679 197.597 740.054 197.602C739.429 197.607 738.916 196.881 738.91 195.981Z" fill="#3F3D56"/>
<path d="M719.71 214.217C719.703 213.317 720.204 212.584 720.83 212.579C721.455 212.574 721.967 213.3 721.974 214.2C721.981 215.099 721.479 215.833 720.854 215.837C720.229 215.842 719.717 215.116 719.71 214.217Z" fill="#E6E6E6"/>
<path d="M727.807 218.264C727.8 217.364 728.301 216.631 728.926 216.626C729.552 216.622 730.064 217.347 730.071 218.247C730.078 219.147 729.576 219.88 728.951 219.885C728.326 219.89 727.814 219.164 727.807 218.264Z" fill="#FF6584"/>
<path d="M716.536 225.745C716.529 224.845 717.03 224.112 717.655 224.107C718.281 224.102 718.793 224.828 718.8 225.728C718.807 226.628 718.305 227.361 717.68 227.366C717.055 227.37 716.542 226.645 716.536 225.745Z" fill="#3F3D56"/>
<path d="M595.768 172.948C595.626 171.968 596.651 171.008 598.059 170.803C599.466 170.598 600.722 171.226 600.865 172.206C601.007 173.186 599.982 174.147 598.574 174.352C597.167 174.557 595.911 173.929 595.768 172.948Z" fill="#E6E6E6"/>
<path d="M579.013 171.312C578.871 170.331 579.896 169.371 581.303 169.166C582.711 168.961 583.967 169.589 584.109 170.569C584.252 171.549 583.226 172.51 581.819 172.715C580.412 172.92 579.156 172.292 579.013 171.312Z" fill="#3F3D56"/>
<path d="M600.357 159.368C600.214 158.388 601.24 157.427 602.647 157.222C604.054 157.017 605.311 157.645 605.453 158.625C605.595 159.605 604.57 160.566 603.163 160.771C601.755 160.976 600.499 160.348 600.357 159.368Z" fill="#FF6584"/>
<path d="M607.637 153.805C607.63 152.905 608.132 152.172 608.757 152.167C609.382 152.162 609.894 152.888 609.901 153.788C609.908 154.687 609.407 155.421 608.781 155.425C608.156 155.43 607.644 154.705 607.637 153.805Z" fill="#E6E6E6"/>
<path d="M610.106 143.443C610.099 142.544 610.601 141.81 611.226 141.806C611.851 141.801 612.363 142.526 612.37 143.426C612.377 144.326 611.876 145.059 611.25 145.064C610.625 145.069 610.113 144.343 610.106 143.443Z" fill="#3F3D56"/>
<path d="M590.906 161.679C590.9 160.779 591.401 160.046 592.026 160.041C592.651 160.036 593.164 160.762 593.17 161.662C593.177 162.561 592.676 163.295 592.051 163.299C591.425 163.304 590.913 162.579 590.906 161.679Z" fill="#E6E6E6"/>
<path d="M599.003 165.726C598.996 164.826 599.498 164.093 600.123 164.088C600.748 164.084 601.261 164.809 601.267 165.709C601.274 166.609 600.773 167.342 600.148 167.347C599.522 167.352 599.01 166.626 599.003 165.726Z" fill="#FF6584"/>
<path d="M587.732 173.207C587.725 172.307 588.227 171.574 588.852 171.569C589.477 171.564 589.989 172.29 589.996 173.19C590.003 174.09 589.502 174.823 588.876 174.828C588.251 174.832 587.739 174.107 587.732 173.207Z" fill="#3F3D56"/>
<path d="M658.126 75.7192C657.983 74.7391 659.009 73.7784 660.416 73.5734C661.823 73.3684 663.079 73.9967 663.222 74.9769C663.364 75.957 662.339 76.9178 660.932 77.1228C659.524 77.3277 658.268 76.6994 658.126 75.7192Z" fill="white"/>
<path d="M641.37 74.0824C641.228 73.1022 642.253 72.1415 643.661 71.9365C645.068 71.7315 646.324 72.3599 646.467 73.34C646.609 74.3201 645.584 75.2809 644.176 75.4859C642.769 75.6909 641.513 75.0625 641.37 74.0824Z" fill="#3F3D56"/>
<path d="M662.714 62.1385C662.571 61.1583 663.597 60.1976 665.004 59.9926C666.411 59.7876 667.667 60.416 667.81 61.3961C667.952 62.3762 666.927 63.337 665.52 63.542C664.112 63.747 662.856 63.1186 662.714 62.1385Z" fill="#FF6584"/>
<path d="M669.994 56.5756C669.987 55.6758 670.489 54.9425 671.114 54.9378C671.739 54.9331 672.252 55.6587 672.258 56.5585C672.265 57.4583 671.764 58.1915 671.139 58.1963C670.513 58.201 670.001 57.4754 669.994 56.5756Z" fill="#E6E6E6"/>
<path d="M672.463 46.2142C672.456 45.3144 672.958 44.5811 673.583 44.5764C674.208 44.5716 674.721 45.2972 674.727 46.197C674.734 47.0968 674.233 47.8301 673.608 47.8349C672.982 47.8396 672.47 47.114 672.463 46.2142Z" fill="#3F3D56"/>
<path d="M653.264 64.4496C653.257 63.5498 653.758 62.8165 654.383 62.8118C655.009 62.807 655.521 63.5326 655.528 64.4324C655.535 65.3322 655.033 66.0655 654.408 66.0702C653.783 66.075 653.27 65.3494 653.264 64.4496Z" fill="#E6E6E6"/>
<path d="M661.36 68.497C661.354 67.5972 661.855 66.864 662.48 66.8592C663.105 66.8545 663.618 67.5801 663.625 68.4799C663.631 69.3797 663.13 70.113 662.505 70.1177C661.88 70.1224 661.367 69.3968 661.36 68.497Z" fill="#FF6584"/>
<path d="M650.089 75.9778C650.083 75.078 650.584 74.3447 651.209 74.34C651.834 74.3353 652.347 75.0608 652.353 75.9606C652.36 76.8604 651.859 77.5937 651.234 77.5985C650.609 77.6032 650.096 76.8776 650.089 75.9778Z" fill="#3F3D56"/>
</g>
<path d="M51.5625 55.2812L39.1875 93H29.2188L46.125 47.5H52.4688L51.5625 55.2812ZM61.8438 93L49.4375 55.2812L48.4375 47.5H54.8438L71.8438 93H61.8438ZM61.2812 76.0625V83.4062H37.25V76.0625H61.2812ZM83.3125 66.4062V93H74.3125V59.1875H82.75L83.3125 66.4062ZM82 74.9062H79.5625C79.5625 72.4062 79.8854 70.1562 80.5312 68.1562C81.1771 66.1354 82.0833 64.4167 83.25 63C84.4167 61.5625 85.8021 60.4688 87.4062 59.7188C89.0312 58.9479 90.8438 58.5625 92.8438 58.5625C94.4271 58.5625 95.875 58.7917 97.1875 59.25C98.5 59.7083 99.625 60.4375 100.562 61.4375C101.521 62.4375 102.25 63.7604 102.75 65.4062C103.271 67.0521 103.531 69.0625 103.531 71.4375V93H94.4688V71.4062C94.4688 69.9062 94.2604 68.7396 93.8438 67.9062C93.4271 67.0729 92.8125 66.4896 92 66.1562C91.2083 65.8021 90.2292 65.625 89.0625 65.625C87.8542 65.625 86.8021 65.8646 85.9062 66.3438C85.0312 66.8229 84.3021 67.4896 83.7188 68.3438C83.1562 69.1771 82.7292 70.1562 82.4375 71.2812C82.1458 72.4062 82 73.6146 82 74.9062ZM130.344 85.625V45H139.406V93H131.25L130.344 85.625ZM108.969 76.5V75.8438C108.969 73.2604 109.26 70.9167 109.844 68.8125C110.427 66.6875 111.281 64.8646 112.406 63.3438C113.531 61.8229 114.917 60.6458 116.562 59.8125C118.208 58.9792 120.083 58.5625 122.188 58.5625C124.167 58.5625 125.896 58.9792 127.375 59.8125C128.875 60.6458 130.146 61.8333 131.188 63.375C132.25 64.8958 133.104 66.6979 133.75 68.7812C134.396 70.8438 134.865 73.1042 135.156 75.5625V77C134.865 79.3542 134.396 81.5417 133.75 83.5625C133.104 85.5833 132.25 87.3542 131.188 88.875C130.146 90.375 128.875 91.5417 127.375 92.375C125.875 93.2083 124.125 93.625 122.125 93.625C120.021 93.625 118.146 93.1979 116.5 92.3438C114.875 91.4896 113.5 90.2917 112.375 88.75C111.271 87.2083 110.427 85.3958 109.844 83.3125C109.26 81.2292 108.969 78.9583 108.969 76.5ZM117.969 75.8438V76.5C117.969 77.8958 118.073 79.1979 118.281 80.4062C118.51 81.6146 118.875 82.6875 119.375 83.625C119.896 84.5417 120.562 85.2604 121.375 85.7812C122.208 86.2812 123.219 86.5312 124.406 86.5312C125.948 86.5312 127.219 86.1875 128.219 85.5C129.219 84.7917 129.979 83.8229 130.5 82.5938C131.042 81.3646 131.354 79.9479 131.438 78.3438V74.25C131.375 72.9375 131.188 71.7604 130.875 70.7188C130.583 69.6562 130.146 68.75 129.562 68C129 67.25 128.292 66.6667 127.438 66.25C126.604 65.8333 125.615 65.625 124.469 65.625C123.302 65.625 122.302 65.8958 121.469 66.4375C120.635 66.9583 119.958 67.6771 119.438 68.5938C118.938 69.5104 118.562 70.5938 118.312 71.8438C118.083 73.0729 117.969 74.4062 117.969 75.8438ZM155.438 66.5625V93H146.438V59.1875H154.906L155.438 66.5625ZM165.625 58.9688L165.469 67.3125C165.031 67.25 164.5 67.1979 163.875 67.1562C163.271 67.0938 162.719 67.0625 162.219 67.0625C160.948 67.0625 159.844 67.2292 158.906 67.5625C157.99 67.875 157.219 68.3438 156.594 68.9688C155.99 69.5938 155.531 70.3542 155.219 71.25C154.927 72.1458 154.76 73.1667 154.719 74.3125L152.906 73.75C152.906 71.5625 153.125 69.5521 153.562 67.7188C154 65.8646 154.635 64.25 155.469 62.875C156.323 61.5 157.365 60.4375 158.594 59.6875C159.823 58.9375 161.229 58.5625 162.812 58.5625C163.312 58.5625 163.823 58.6042 164.344 58.6875C164.865 58.75 165.292 58.8438 165.625 58.9688ZM184.812 93.625C182.188 93.625 179.833 93.2083 177.75 92.375C175.667 91.5208 173.896 90.3438 172.438 88.8438C171 87.3438 169.896 85.6042 169.125 83.625C168.354 81.625 167.969 79.5 167.969 77.25V76C167.969 73.4375 168.333 71.0938 169.062 68.9688C169.792 66.8438 170.833 65 172.188 63.4375C173.562 61.875 175.229 60.6771 177.188 59.8438C179.146 58.9896 181.354 58.5625 183.812 58.5625C186.208 58.5625 188.333 58.9583 190.188 59.75C192.042 60.5417 193.594 61.6667 194.844 63.125C196.115 64.5833 197.073 66.3333 197.719 68.375C198.365 70.3958 198.688 72.6458 198.688 75.125V78.875H171.812V72.875H189.844V72.1875C189.844 70.9375 189.615 69.8229 189.156 68.8438C188.719 67.8438 188.052 67.0521 187.156 66.4688C186.26 65.8854 185.115 65.5938 183.719 65.5938C182.531 65.5938 181.51 65.8542 180.656 66.375C179.802 66.8958 179.104 67.625 178.562 68.5625C178.042 69.5 177.646 70.6042 177.375 71.875C177.125 73.125 177 74.5 177 76V77.25C177 78.6042 177.188 79.8542 177.562 81C177.958 82.1458 178.51 83.1354 179.219 83.9688C179.948 84.8021 180.823 85.4479 181.844 85.9062C182.885 86.3646 184.062 86.5938 185.375 86.5938C187 86.5938 188.51 86.2812 189.906 85.6562C191.323 85.0104 192.542 84.0417 193.562 82.75L197.938 87.5C197.229 88.5208 196.26 89.5 195.031 90.4375C193.823 91.375 192.365 92.1458 190.656 92.75C188.948 93.3333 187 93.625 184.812 93.625ZM222.062 85.375V70.3125C222.062 69.2292 221.885 68.3021 221.531 67.5312C221.177 66.7396 220.625 66.125 219.875 65.6875C219.146 65.25 218.198 65.0312 217.031 65.0312C216.031 65.0312 215.167 65.2083 214.438 65.5625C213.708 65.8958 213.146 66.3854 212.75 67.0312C212.354 67.6562 212.156 68.3958 212.156 69.25H203.156C203.156 67.8125 203.49 66.4479 204.156 65.1562C204.823 63.8646 205.792 62.7292 207.062 61.75C208.333 60.75 209.844 59.9688 211.594 59.4062C213.365 58.8438 215.344 58.5625 217.531 58.5625C220.156 58.5625 222.49 59 224.531 59.875C226.573 60.75 228.177 62.0625 229.344 63.8125C230.531 65.5625 231.125 67.75 231.125 70.375V84.8438C231.125 86.6979 231.24 88.2188 231.469 89.4062C231.698 90.5729 232.031 91.5938 232.469 92.4688V93H223.375C222.938 92.0833 222.604 90.9375 222.375 89.5625C222.167 88.1667 222.062 86.7708 222.062 85.375ZM223.25 72.4062L223.312 77.5H218.281C217.094 77.5 216.062 77.6354 215.188 77.9062C214.312 78.1771 213.594 78.5625 213.031 79.0625C212.469 79.5417 212.052 80.1042 211.781 80.75C211.531 81.3958 211.406 82.1042 211.406 82.875C211.406 83.6458 211.583 84.3438 211.938 84.9688C212.292 85.5729 212.802 86.0521 213.469 86.4062C214.135 86.7396 214.917 86.9062 215.812 86.9062C217.167 86.9062 218.344 86.6354 219.344 86.0938C220.344 85.5521 221.115 84.8854 221.656 84.0938C222.219 83.3021 222.51 82.5521 222.531 81.8438L224.906 85.6562C224.573 86.5104 224.115 87.3958 223.531 88.3125C222.969 89.2292 222.25 90.0938 221.375 90.9062C220.5 91.6979 219.448 92.3542 218.219 92.875C216.99 93.375 215.531 93.625 213.844 93.625C211.698 93.625 209.75 93.1979 208 92.3438C206.271 91.4688 204.896 90.2708 203.875 88.75C202.875 87.2083 202.375 85.4583 202.375 83.5C202.375 81.7292 202.708 80.1562 203.375 78.7812C204.042 77.4062 205.021 76.25 206.312 75.3125C207.625 74.3542 209.26 73.6354 211.219 73.1562C213.177 72.6562 215.448 72.4062 218.031 72.4062H223.25ZM256.344 83.6562C256.344 83.0104 256.156 82.4271 255.781 81.9062C255.406 81.3854 254.708 80.9062 253.688 80.4688C252.688 80.0104 251.24 79.5938 249.344 79.2188C247.635 78.8438 246.042 78.375 244.562 77.8125C243.104 77.2292 241.833 76.5312 240.75 75.7188C239.688 74.9062 238.854 73.9479 238.25 72.8438C237.646 71.7188 237.344 70.4375 237.344 69C237.344 67.5833 237.646 66.25 238.25 65C238.875 63.75 239.76 62.6458 240.906 61.6875C242.073 60.7083 243.49 59.9479 245.156 59.4062C246.844 58.8438 248.74 58.5625 250.844 58.5625C253.781 58.5625 256.302 59.0312 258.406 59.9688C260.531 60.9062 262.156 62.1979 263.281 63.8438C264.427 65.4688 265 67.3229 265 69.4062H256C256 68.5312 255.812 67.75 255.438 67.0625C255.083 66.3542 254.521 65.8021 253.75 65.4062C253 64.9896 252.021 64.7812 250.812 64.7812C249.812 64.7812 248.948 64.9583 248.219 65.3125C247.49 65.6458 246.927 66.1042 246.531 66.6875C246.156 67.25 245.969 67.875 245.969 68.5625C245.969 69.0833 246.073 69.5521 246.281 69.9688C246.51 70.3646 246.875 70.7292 247.375 71.0625C247.875 71.3958 248.521 71.7083 249.312 72C250.125 72.2708 251.125 72.5208 252.312 72.75C254.75 73.25 256.927 73.9062 258.844 74.7188C260.76 75.5104 262.281 76.5938 263.406 77.9688C264.531 79.3229 265.094 81.1042 265.094 83.3125C265.094 84.8125 264.76 86.1875 264.094 87.4375C263.427 88.6875 262.469 89.7812 261.219 90.7188C259.969 91.6354 258.469 92.3542 256.719 92.875C254.99 93.375 253.042 93.625 250.875 93.625C247.729 93.625 245.062 93.0625 242.875 91.9375C240.708 90.8125 239.062 89.3854 237.938 87.6562C236.833 85.9062 236.281 84.1146 236.281 82.2812H244.812C244.854 83.5104 245.167 84.5 245.75 85.25C246.354 86 247.115 86.5417 248.031 86.875C248.969 87.2083 249.979 87.375 251.062 87.375C252.229 87.375 253.198 87.2188 253.969 86.9062C254.74 86.5729 255.323 86.1354 255.719 85.5938C256.135 85.0312 256.344 84.3854 256.344 83.6562ZM324.469 47.5V93H315.094L296.812 62.5V93H287.438V47.5H296.812L315.125 78.0312V47.5H324.469ZM341.562 59.1875V93H332.531V59.1875H341.562ZM331.969 50.375C331.969 49.0625 332.427 47.9792 333.344 47.125C334.26 46.2708 335.49 45.8438 337.031 45.8438C338.552 45.8438 339.771 46.2708 340.688 47.125C341.625 47.9792 342.094 49.0625 342.094 50.375C342.094 51.6875 341.625 52.7708 340.688 53.625C339.771 54.4792 338.552 54.9062 337.031 54.9062C335.49 54.9062 334.26 54.4792 333.344 53.625C332.427 52.7708 331.969 51.6875 331.969 50.375ZM362.969 86.5938C364.073 86.5938 365.052 86.3854 365.906 85.9688C366.76 85.5312 367.427 84.9271 367.906 84.1562C368.406 83.3646 368.667 82.4375 368.688 81.375H377.156C377.135 83.75 376.5 85.8646 375.25 87.7188C374 89.5521 372.323 91 370.219 92.0625C368.115 93.1042 365.76 93.625 363.156 93.625C360.531 93.625 358.24 93.1875 356.281 92.3125C354.344 91.4375 352.729 90.2292 351.438 88.6875C350.146 87.125 349.177 85.3125 348.531 83.25C347.885 81.1667 347.562 78.9375 347.562 76.5625V75.6562C347.562 73.2604 347.885 71.0312 348.531 68.9688C349.177 66.8854 350.146 65.0729 351.438 63.5312C352.729 61.9688 354.344 60.75 356.281 59.875C358.219 59 360.49 58.5625 363.094 58.5625C365.865 58.5625 368.292 59.0938 370.375 60.1562C372.479 61.2188 374.125 62.7396 375.312 64.7188C376.521 66.6771 377.135 69 377.156 71.6875H368.688C368.667 70.5625 368.427 69.5417 367.969 68.625C367.531 67.7083 366.885 66.9792 366.031 66.4375C365.198 65.875 364.167 65.5938 362.938 65.5938C361.625 65.5938 360.552 65.875 359.719 66.4375C358.885 66.9792 358.24 67.7292 357.781 68.6875C357.323 69.625 357 70.6979 356.812 71.9062C356.646 73.0938 356.562 74.3438 356.562 75.6562V76.5625C356.562 77.875 356.646 79.1354 356.812 80.3438C356.979 81.5521 357.292 82.625 357.75 83.5625C358.229 84.5 358.885 85.2396 359.719 85.7812C360.552 86.3229 361.635 86.5938 362.969 86.5938ZM391.375 44.9688V93H382.375V44.9688H391.375ZM412.688 59.1875L398 75.9375L390.125 83.9062L386.844 77.4062L393.094 69.4688L401.875 59.1875H412.688ZM403.344 93L393.344 77.375L399.562 71.9375L413.719 93H403.344ZM426.062 45V93H417.031V45H426.062ZM451.75 85.375V70.3125C451.75 69.2292 451.573 68.3021 451.219 67.5312C450.865 66.7396 450.312 66.125 449.562 65.6875C448.833 65.25 447.885 65.0312 446.719 65.0312C445.719 65.0312 444.854 65.2083 444.125 65.5625C443.396 65.8958 442.833 66.3854 442.438 67.0312C442.042 67.6562 441.844 68.3958 441.844 69.25H432.844C432.844 67.8125 433.177 66.4479 433.844 65.1562C434.51 63.8646 435.479 62.7292 436.75 61.75C438.021 60.75 439.531 59.9688 441.281 59.4062C443.052 58.8438 445.031 58.5625 447.219 58.5625C449.844 58.5625 452.177 59 454.219 59.875C456.26 60.75 457.865 62.0625 459.031 63.8125C460.219 65.5625 460.812 67.75 460.812 70.375V84.8438C460.812 86.6979 460.927 88.2188 461.156 89.4062C461.385 90.5729 461.719 91.5938 462.156 92.4688V93H453.062C452.625 92.0833 452.292 90.9375 452.062 89.5625C451.854 88.1667 451.75 86.7708 451.75 85.375ZM452.938 72.4062L453 77.5H447.969C446.781 77.5 445.75 77.6354 444.875 77.9062C444 78.1771 443.281 78.5625 442.719 79.0625C442.156 79.5417 441.74 80.1042 441.469 80.75C441.219 81.3958 441.094 82.1042 441.094 82.875C441.094 83.6458 441.271 84.3438 441.625 84.9688C441.979 85.5729 442.49 86.0521 443.156 86.4062C443.823 86.7396 444.604 86.9062 445.5 86.9062C446.854 86.9062 448.031 86.6354 449.031 86.0938C450.031 85.5521 450.802 84.8854 451.344 84.0938C451.906 83.3021 452.198 82.5521 452.219 81.8438L454.594 85.6562C454.26 86.5104 453.802 87.3958 453.219 88.3125C452.656 89.2292 451.938 90.0938 451.062 90.9062C450.188 91.6979 449.135 92.3542 447.906 92.875C446.677 93.375 445.219 93.625 443.531 93.625C441.385 93.625 439.438 93.1979 437.688 92.3438C435.958 91.4688 434.583 90.2708 433.562 88.75C432.562 87.2083 432.062 85.4583 432.062 83.5C432.062 81.7292 432.396 80.1562 433.062 78.7812C433.729 77.4062 434.708 76.25 436 75.3125C437.312 74.3542 438.948 73.6354 440.906 73.1562C442.865 72.6562 445.135 72.4062 447.719 72.4062H452.938ZM487.75 84.9062V59.1875H496.75V93H488.281L487.75 84.9062ZM488.75 77.9688L491.406 77.9062C491.406 80.1562 491.146 82.25 490.625 84.1875C490.104 86.1042 489.323 87.7708 488.281 89.1875C487.24 90.5833 485.927 91.6771 484.344 92.4688C482.76 93.2396 480.896 93.625 478.75 93.625C477.104 93.625 475.583 93.3958 474.188 92.9375C472.812 92.4583 471.625 91.7188 470.625 90.7188C469.646 89.6979 468.875 88.3958 468.312 86.8125C467.771 85.2083 467.5 83.2812 467.5 81.0312V59.1875H476.5V81.0938C476.5 82.0938 476.615 82.9375 476.844 83.625C477.094 84.3125 477.438 84.875 477.875 85.3125C478.312 85.75 478.823 86.0625 479.406 86.25C480.01 86.4375 480.677 86.5312 481.406 86.5312C483.26 86.5312 484.719 86.1562 485.781 85.4062C486.865 84.6562 487.625 83.6354 488.062 82.3438C488.521 81.0312 488.75 79.5729 488.75 77.9688ZM521.906 83.6562C521.906 83.0104 521.719 82.4271 521.344 81.9062C520.969 81.3854 520.271 80.9062 519.25 80.4688C518.25 80.0104 516.802 79.5938 514.906 79.2188C513.198 78.8438 511.604 78.375 510.125 77.8125C508.667 77.2292 507.396 76.5312 506.312 75.7188C505.25 74.9062 504.417 73.9479 503.812 72.8438C503.208 71.7188 502.906 70.4375 502.906 69C502.906 67.5833 503.208 66.25 503.812 65C504.438 63.75 505.323 62.6458 506.469 61.6875C507.635 60.7083 509.052 59.9479 510.719 59.4062C512.406 58.8438 514.302 58.5625 516.406 58.5625C519.344 58.5625 521.865 59.0312 523.969 59.9688C526.094 60.9062 527.719 62.1979 528.844 63.8438C529.99 65.4688 530.562 67.3229 530.562 69.4062H521.562C521.562 68.5312 521.375 67.75 521 67.0625C520.646 66.3542 520.083 65.8021 519.312 65.4062C518.562 64.9896 517.583 64.7812 516.375 64.7812C515.375 64.7812 514.51 64.9583 513.781 65.3125C513.052 65.6458 512.49 66.1042 512.094 66.6875C511.719 67.25 511.531 67.875 511.531 68.5625C511.531 69.0833 511.635 69.5521 511.844 69.9688C512.073 70.3646 512.438 70.7292 512.938 71.0625C513.438 71.3958 514.083 71.7083 514.875 72C515.688 72.2708 516.688 72.5208 517.875 72.75C520.312 73.25 522.49 73.9062 524.406 74.7188C526.323 75.5104 527.844 76.5938 528.969 77.9688C530.094 79.3229 530.656 81.1042 530.656 83.3125C530.656 84.8125 530.323 86.1875 529.656 87.4375C528.99 88.6875 528.031 89.7812 526.781 90.7188C525.531 91.6354 524.031 92.3542 522.281 92.875C520.552 93.375 518.604 93.625 516.438 93.625C513.292 93.625 510.625 93.0625 508.438 91.9375C506.271 90.8125 504.625 89.3854 503.5 87.6562C502.396 85.9062 501.844 84.1146 501.844 82.2812H510.375C510.417 83.5104 510.729 84.5 511.312 85.25C511.917 86 512.677 86.5417 513.594 86.875C514.531 87.2083 515.542 87.375 516.625 87.375C517.792 87.375 518.76 87.2188 519.531 86.9062C520.302 86.5729 520.885 86.1354 521.281 85.5938C521.698 85.0312 521.906 84.3854 521.906 83.6562Z" fill="#252F5D"/>
<path d="M37.8906 136.328C37.8906 136.005 37.7969 135.714 37.6094 135.453C37.4219 135.193 37.0729 134.953 36.5625 134.734C36.0625 134.505 35.3385 134.297 34.3906 134.109C33.5365 133.922 32.7396 133.688 32 133.406C31.2708 133.115 30.6354 132.766 30.0938 132.359C29.5625 131.953 29.1458 131.474 28.8438 130.922C28.5417 130.359 28.3906 129.719 28.3906 129C28.3906 128.292 28.5417 127.625 28.8438 127C29.1562 126.375 29.599 125.823 30.1719 125.344C30.7552 124.854 31.4635 124.474 32.2969 124.203C33.1406 123.922 34.0885 123.781 35.1406 123.781C36.6094 123.781 37.8698 124.016 38.9219 124.484C39.9844 124.953 40.7969 125.599 41.3594 126.422C41.9323 127.234 42.2188 128.161 42.2188 129.203H37.7188C37.7188 128.766 37.625 128.375 37.4375 128.031C37.2604 127.677 36.9792 127.401 36.5938 127.203C36.2188 126.995 35.7292 126.891 35.125 126.891C34.625 126.891 34.1927 126.979 33.8281 127.156C33.4635 127.323 33.1823 127.552 32.9844 127.844C32.7969 128.125 32.7031 128.438 32.7031 128.781C32.7031 129.042 32.7552 129.276 32.8594 129.484C32.974 129.682 33.1562 129.865 33.4062 130.031C33.6562 130.198 33.9792 130.354 34.375 130.5C34.7812 130.635 35.2812 130.76 35.875 130.875C37.0938 131.125 38.1823 131.453 39.1406 131.859C40.099 132.255 40.8594 132.797 41.4219 133.484C41.9844 134.161 42.2656 135.052 42.2656 136.156C42.2656 136.906 42.099 137.594 41.7656 138.219C41.4323 138.844 40.9531 139.391 40.3281 139.859C39.7031 140.318 38.9531 140.677 38.0781 140.938C37.2135 141.188 36.2396 141.312 35.1562 141.312C33.5833 141.312 32.25 141.031 31.1562 140.469C30.0729 139.906 29.25 139.193 28.6875 138.328C28.1354 137.453 27.8594 136.557 27.8594 135.641H32.125C32.1458 136.255 32.3021 136.75 32.5938 137.125C32.8958 137.5 33.276 137.771 33.7344 137.938C34.2031 138.104 34.7083 138.188 35.25 138.188C35.8333 138.188 36.3177 138.109 36.7031 137.953C37.0885 137.786 37.3802 137.568 37.5781 137.297C37.7865 137.016 37.8906 136.693 37.8906 136.328ZM44.4688 132.719V132.391C44.4688 131.151 44.6458 130.01 45 128.969C45.3542 127.917 45.8698 127.005 46.5469 126.234C47.224 125.464 48.0573 124.865 49.0469 124.438C50.0365 124 51.1719 123.781 52.4531 123.781C53.7344 123.781 54.875 124 55.875 124.438C56.875 124.865 57.7135 125.464 58.3906 126.234C59.0781 127.005 59.599 127.917 59.9531 128.969C60.3073 130.01 60.4844 131.151 60.4844 132.391V132.719C60.4844 133.948 60.3073 135.089 59.9531 136.141C59.599 137.182 59.0781 138.094 58.3906 138.875C57.7135 139.646 56.8802 140.245 55.8906 140.672C54.901 141.099 53.7656 141.312 52.4844 141.312C51.2031 141.312 50.0625 141.099 49.0625 140.672C48.0729 140.245 47.2344 139.646 46.5469 138.875C45.8698 138.094 45.3542 137.182 45 136.141C44.6458 135.089 44.4688 133.948 44.4688 132.719ZM48.9688 132.391V132.719C48.9688 133.427 49.0312 134.089 49.1562 134.703C49.2812 135.318 49.4792 135.859 49.75 136.328C50.0312 136.786 50.3958 137.146 50.8438 137.406C51.2917 137.667 51.8385 137.797 52.4844 137.797C53.1094 137.797 53.6458 137.667 54.0938 137.406C54.5417 137.146 54.901 136.786 55.1719 136.328C55.4427 135.859 55.6406 135.318 55.7656 134.703C55.901 134.089 55.9688 133.427 55.9688 132.719V132.391C55.9688 131.703 55.901 131.057 55.7656 130.453C55.6406 129.839 55.4375 129.297 55.1562 128.828C54.8854 128.349 54.526 127.974 54.0781 127.703C53.6302 127.432 53.0885 127.297 52.4531 127.297C51.8177 127.297 51.276 127.432 50.8281 127.703C50.3906 127.974 50.0312 128.349 49.75 128.828C49.4792 129.297 49.2812 129.839 49.1562 130.453C49.0312 131.057 48.9688 131.703 48.9688 132.391ZM68.9844 141H64.4531V122.594C64.4531 121.312 64.7031 120.234 65.2031 119.359C65.7135 118.474 66.4271 117.807 67.3438 117.359C68.2708 116.901 69.3698 116.672 70.6406 116.672C71.0573 116.672 71.4583 116.703 71.8438 116.766C72.2292 116.818 72.6042 116.885 72.9688 116.969L72.9219 120.359C72.724 120.307 72.5156 120.271 72.2969 120.25C72.0781 120.229 71.8229 120.219 71.5312 120.219C70.9896 120.219 70.526 120.312 70.1406 120.5C69.7656 120.677 69.4792 120.943 69.2812 121.297C69.0833 121.651 68.9844 122.083 68.9844 122.594V141ZM72.3594 124.094V127.281H61.9375V124.094H72.3594ZM83 124.094V127.281H73.1562V124.094H83ZM75.5938 119.922H80.0938V135.906C80.0938 136.396 80.1562 136.771 80.2812 137.031C80.4167 137.292 80.6146 137.474 80.875 137.578C81.1354 137.672 81.4635 137.719 81.8594 137.719C82.1406 137.719 82.3906 137.708 82.6094 137.688C82.8385 137.656 83.0312 137.625 83.1875 137.594L83.2031 140.906C82.8177 141.031 82.401 141.13 81.9531 141.203C81.5052 141.276 81.0104 141.312 80.4688 141.312C79.4792 141.312 78.6146 141.151 77.875 140.828C77.1458 140.495 76.5833 139.964 76.1875 139.234C75.7917 138.505 75.5938 137.547 75.5938 136.359V119.922ZM90.3906 136.625L93.9062 124.094H96.7656L95.8438 129.016L92.3281 141H89.9375L90.3906 136.625ZM88.6094 124.094L91.125 136.609L91.3594 141H88.5469L84.2656 124.094H88.6094ZM99.9844 136.406L102.438 124.094H106.797L102.516 141H99.7188L99.9844 136.406ZM97.1562 124.094L100.656 136.531L101.141 141H98.7344L95.2188 129.031L94.3281 124.094H97.1562ZM118.188 137.188V129.656C118.188 129.115 118.099 128.651 117.922 128.266C117.745 127.87 117.469 127.562 117.094 127.344C116.729 127.125 116.255 127.016 115.672 127.016C115.172 127.016 114.74 127.104 114.375 127.281C114.01 127.448 113.729 127.693 113.531 128.016C113.333 128.328 113.234 128.698 113.234 129.125H108.734C108.734 128.406 108.901 127.724 109.234 127.078C109.568 126.432 110.052 125.865 110.688 125.375C111.323 124.875 112.078 124.484 112.953 124.203C113.839 123.922 114.828 123.781 115.922 123.781C117.234 123.781 118.401 124 119.422 124.438C120.443 124.875 121.245 125.531 121.828 126.406C122.422 127.281 122.719 128.375 122.719 129.688V136.922C122.719 137.849 122.776 138.609 122.891 139.203C123.005 139.786 123.172 140.297 123.391 140.734V141H118.844C118.625 140.542 118.458 139.969 118.344 139.281C118.24 138.583 118.188 137.885 118.188 137.188ZM118.781 130.703L118.812 133.25H116.297C115.703 133.25 115.188 133.318 114.75 133.453C114.312 133.589 113.953 133.781 113.672 134.031C113.391 134.271 113.182 134.552 113.047 134.875C112.922 135.198 112.859 135.552 112.859 135.938C112.859 136.323 112.948 136.672 113.125 136.984C113.302 137.286 113.557 137.526 113.891 137.703C114.224 137.87 114.615 137.953 115.062 137.953C115.74 137.953 116.328 137.818 116.828 137.547C117.328 137.276 117.714 136.943 117.984 136.547C118.266 136.151 118.411 135.776 118.422 135.422L119.609 137.328C119.443 137.755 119.214 138.198 118.922 138.656C118.641 139.115 118.281 139.547 117.844 139.953C117.406 140.349 116.88 140.677 116.266 140.938C115.651 141.188 114.922 141.312 114.078 141.312C113.005 141.312 112.031 141.099 111.156 140.672C110.292 140.234 109.604 139.635 109.094 138.875C108.594 138.104 108.344 137.229 108.344 136.25C108.344 135.365 108.51 134.578 108.844 133.891C109.177 133.203 109.667 132.625 110.312 132.156C110.969 131.677 111.786 131.318 112.766 131.078C113.745 130.828 114.88 130.703 116.172 130.703H118.781ZM130.688 127.781V141H126.188V124.094H130.422L130.688 127.781ZM135.781 123.984L135.703 128.156C135.484 128.125 135.219 128.099 134.906 128.078C134.604 128.047 134.328 128.031 134.078 128.031C133.443 128.031 132.891 128.115 132.422 128.281C131.964 128.438 131.578 128.672 131.266 128.984C130.964 129.297 130.734 129.677 130.578 130.125C130.432 130.573 130.349 131.083 130.328 131.656L129.422 131.375C129.422 130.281 129.531 129.276 129.75 128.359C129.969 127.432 130.286 126.625 130.703 125.938C131.13 125.25 131.651 124.719 132.266 124.344C132.88 123.969 133.583 123.781 134.375 123.781C134.625 123.781 134.88 123.802 135.141 123.844C135.401 123.875 135.615 123.922 135.781 123.984ZM145.375 141.312C144.062 141.312 142.885 141.104 141.844 140.688C140.802 140.26 139.917 139.672 139.188 138.922C138.469 138.172 137.917 137.302 137.531 136.312C137.146 135.312 136.953 134.25 136.953 133.125V132.5C136.953 131.219 137.135 130.047 137.5 128.984C137.865 127.922 138.385 127 139.062 126.219C139.75 125.438 140.583 124.839 141.562 124.422C142.542 123.995 143.646 123.781 144.875 123.781C146.073 123.781 147.135 123.979 148.062 124.375C148.99 124.771 149.766 125.333 150.391 126.062C151.026 126.792 151.505 127.667 151.828 128.688C152.151 129.698 152.312 130.823 152.312 132.062V133.938H138.875V130.938H147.891V130.594C147.891 129.969 147.776 129.411 147.547 128.922C147.328 128.422 146.995 128.026 146.547 127.734C146.099 127.443 145.526 127.297 144.828 127.297C144.234 127.297 143.724 127.427 143.297 127.688C142.87 127.948 142.521 128.312 142.25 128.781C141.99 129.25 141.792 129.802 141.656 130.438C141.531 131.062 141.469 131.75 141.469 132.5V133.125C141.469 133.802 141.562 134.427 141.75 135C141.948 135.573 142.224 136.068 142.578 136.484C142.943 136.901 143.38 137.224 143.891 137.453C144.411 137.682 145 137.797 145.656 137.797C146.469 137.797 147.224 137.641 147.922 137.328C148.63 137.005 149.24 136.521 149.75 135.875L151.938 138.25C151.583 138.76 151.099 139.25 150.484 139.719C149.88 140.188 149.151 140.573 148.297 140.875C147.443 141.167 146.469 141.312 145.375 141.312ZM170.625 141.312C169.312 141.312 168.135 141.104 167.094 140.688C166.052 140.26 165.167 139.672 164.438 138.922C163.719 138.172 163.167 137.302 162.781 136.312C162.396 135.312 162.203 134.25 162.203 133.125V132.5C162.203 131.219 162.385 130.047 162.75 128.984C163.115 127.922 163.635 127 164.312 126.219C165 125.438 165.833 124.839 166.812 124.422C167.792 123.995 168.896 123.781 170.125 123.781C171.323 123.781 172.385 123.979 173.312 124.375C174.24 124.771 175.016 125.333 175.641 126.062C176.276 126.792 176.755 127.667 177.078 128.688C177.401 129.698 177.562 130.823 177.562 132.062V133.938H164.125V130.938H173.141V130.594C173.141 129.969 173.026 129.411 172.797 128.922C172.578 128.422 172.245 128.026 171.797 127.734C171.349 127.443 170.776 127.297 170.078 127.297C169.484 127.297 168.974 127.427 168.547 127.688C168.12 127.948 167.771 128.312 167.5 128.781C167.24 129.25 167.042 129.802 166.906 130.438C166.781 131.062 166.719 131.75 166.719 132.5V133.125C166.719 133.802 166.812 134.427 167 135C167.198 135.573 167.474 136.068 167.828 136.484C168.193 136.901 168.63 137.224 169.141 137.453C169.661 137.682 170.25 137.797 170.906 137.797C171.719 137.797 172.474 137.641 173.172 137.328C173.88 137.005 174.49 136.521 175 135.875L177.188 138.25C176.833 138.76 176.349 139.25 175.734 139.719C175.13 140.188 174.401 140.573 173.547 140.875C172.693 141.167 171.719 141.312 170.625 141.312ZM184.531 127.703V141H180.031V124.094H184.25L184.531 127.703ZM183.875 131.953H182.656C182.656 130.703 182.818 129.578 183.141 128.578C183.464 127.568 183.917 126.708 184.5 126C185.083 125.281 185.776 124.734 186.578 124.359C187.391 123.974 188.297 123.781 189.297 123.781C190.089 123.781 190.812 123.896 191.469 124.125C192.125 124.354 192.688 124.719 193.156 125.219C193.635 125.719 194 126.38 194.25 127.203C194.51 128.026 194.641 129.031 194.641 130.219V141H190.109V130.203C190.109 129.453 190.005 128.87 189.797 128.453C189.589 128.036 189.281 127.745 188.875 127.578C188.479 127.401 187.99 127.312 187.406 127.312C186.802 127.312 186.276 127.432 185.828 127.672C185.391 127.911 185.026 128.245 184.734 128.672C184.453 129.089 184.24 129.578 184.094 130.141C183.948 130.703 183.875 131.307 183.875 131.953ZM208.766 124.094H212.844V140.438C212.844 141.979 212.5 143.286 211.812 144.359C211.135 145.443 210.188 146.26 208.969 146.812C207.75 147.375 206.333 147.656 204.719 147.656C204.01 147.656 203.26 147.562 202.469 147.375C201.688 147.188 200.938 146.896 200.219 146.5C199.51 146.104 198.917 145.604 198.438 145L200.422 142.344C200.943 142.948 201.547 143.417 202.234 143.75C202.922 144.094 203.682 144.266 204.516 144.266C205.328 144.266 206.016 144.115 206.578 143.812C207.141 143.521 207.573 143.089 207.875 142.516C208.177 141.953 208.328 141.271 208.328 140.469V128L208.766 124.094ZM197.391 132.75V132.422C197.391 131.13 197.547 129.958 197.859 128.906C198.182 127.844 198.635 126.932 199.219 126.172C199.812 125.411 200.531 124.823 201.375 124.406C202.219 123.99 203.172 123.781 204.234 123.781C205.359 123.781 206.302 123.99 207.062 124.406C207.823 124.823 208.448 125.417 208.938 126.188C209.427 126.948 209.807 127.849 210.078 128.891C210.359 129.922 210.578 131.052 210.734 132.281V133C210.578 134.177 210.344 135.271 210.031 136.281C209.719 137.292 209.307 138.177 208.797 138.938C208.286 139.688 207.651 140.271 206.891 140.688C206.141 141.104 205.245 141.312 204.203 141.312C203.161 141.312 202.219 141.099 201.375 140.672C200.542 140.245 199.828 139.646 199.234 138.875C198.641 138.104 198.182 137.198 197.859 136.156C197.547 135.115 197.391 133.979 197.391 132.75ZM201.891 132.422V132.75C201.891 133.448 201.958 134.099 202.094 134.703C202.229 135.307 202.438 135.844 202.719 136.312C203.01 136.771 203.37 137.13 203.797 137.391C204.234 137.641 204.75 137.766 205.344 137.766C206.167 137.766 206.839 137.594 207.359 137.25C207.88 136.896 208.271 136.411 208.531 135.797C208.792 135.182 208.943 134.474 208.984 133.672V131.625C208.964 130.969 208.875 130.38 208.719 129.859C208.562 129.328 208.344 128.875 208.062 128.5C207.781 128.125 207.417 127.833 206.969 127.625C206.521 127.417 205.99 127.312 205.375 127.312C204.781 127.312 204.266 127.448 203.828 127.719C203.401 127.979 203.042 128.339 202.75 128.797C202.469 129.255 202.255 129.797 202.109 130.422C201.964 131.036 201.891 131.703 201.891 132.422ZM221.094 124.094V141H216.578V124.094H221.094ZM216.297 119.688C216.297 119.031 216.526 118.49 216.984 118.062C217.443 117.635 218.057 117.422 218.828 117.422C219.589 117.422 220.198 117.635 220.656 118.062C221.125 118.49 221.359 119.031 221.359 119.688C221.359 120.344 221.125 120.885 220.656 121.312C220.198 121.74 219.589 121.953 218.828 121.953C218.057 121.953 217.443 121.74 216.984 121.312C216.526 120.885 216.297 120.344 216.297 119.688ZM229.219 127.703V141H224.719V124.094H228.938L229.219 127.703ZM228.562 131.953H227.344C227.344 130.703 227.505 129.578 227.828 128.578C228.151 127.568 228.604 126.708 229.188 126C229.771 125.281 230.464 124.734 231.266 124.359C232.078 123.974 232.984 123.781 233.984 123.781C234.776 123.781 235.5 123.896 236.156 124.125C236.812 124.354 237.375 124.719 237.844 125.219C238.323 125.719 238.688 126.38 238.938 127.203C239.198 128.026 239.328 129.031 239.328 130.219V141H234.797V130.203C234.797 129.453 234.693 128.87 234.484 128.453C234.276 128.036 233.969 127.745 233.562 127.578C233.167 127.401 232.677 127.312 232.094 127.312C231.49 127.312 230.964 127.432 230.516 127.672C230.078 127.911 229.714 128.245 229.422 128.672C229.141 129.089 228.927 129.578 228.781 130.141C228.635 130.703 228.562 131.307 228.562 131.953ZM250.531 141.312C249.219 141.312 248.042 141.104 247 140.688C245.958 140.26 245.073 139.672 244.344 138.922C243.625 138.172 243.073 137.302 242.688 136.312C242.302 135.312 242.109 134.25 242.109 133.125V132.5C242.109 131.219 242.292 130.047 242.656 128.984C243.021 127.922 243.542 127 244.219 126.219C244.906 125.438 245.74 124.839 246.719 124.422C247.698 123.995 248.802 123.781 250.031 123.781C251.229 123.781 252.292 123.979 253.219 124.375C254.146 124.771 254.922 125.333 255.547 126.062C256.182 126.792 256.661 127.667 256.984 128.688C257.307 129.698 257.469 130.823 257.469 132.062V133.938H244.031V130.938H253.047V130.594C253.047 129.969 252.932 129.411 252.703 128.922C252.484 128.422 252.151 128.026 251.703 127.734C251.255 127.443 250.682 127.297 249.984 127.297C249.391 127.297 248.88 127.427 248.453 127.688C248.026 127.948 247.677 128.312 247.406 128.781C247.146 129.25 246.948 129.802 246.812 130.438C246.688 131.062 246.625 131.75 246.625 132.5V133.125C246.625 133.802 246.719 134.427 246.906 135C247.104 135.573 247.38 136.068 247.734 136.484C248.099 136.901 248.536 137.224 249.047 137.453C249.568 137.682 250.156 137.797 250.812 137.797C251.625 137.797 252.38 137.641 253.078 137.328C253.786 137.005 254.396 136.521 254.906 135.875L257.094 138.25C256.74 138.76 256.255 139.25 255.641 139.719C255.036 140.188 254.307 140.573 253.453 140.875C252.599 141.167 251.625 141.312 250.531 141.312ZM267.812 141.312C266.5 141.312 265.323 141.104 264.281 140.688C263.24 140.26 262.354 139.672 261.625 138.922C260.906 138.172 260.354 137.302 259.969 136.312C259.583 135.312 259.391 134.25 259.391 133.125V132.5C259.391 131.219 259.573 130.047 259.938 128.984C260.302 127.922 260.823 127 261.5 126.219C262.188 125.438 263.021 124.839 264 124.422C264.979 123.995 266.083 123.781 267.312 123.781C268.51 123.781 269.573 123.979 270.5 124.375C271.427 124.771 272.203 125.333 272.828 126.062C273.464 126.792 273.943 127.667 274.266 128.688C274.589 129.698 274.75 130.823 274.75 132.062V133.938H261.312V130.938H270.328V130.594C270.328 129.969 270.214 129.411 269.984 128.922C269.766 128.422 269.432 128.026 268.984 127.734C268.536 127.443 267.964 127.297 267.266 127.297C266.672 127.297 266.161 127.427 265.734 127.688C265.307 127.948 264.958 128.312 264.688 128.781C264.427 129.25 264.229 129.802 264.094 130.438C263.969 131.062 263.906 131.75 263.906 132.5V133.125C263.906 133.802 264 134.427 264.188 135C264.385 135.573 264.661 136.068 265.016 136.484C265.38 136.901 265.818 137.224 266.328 137.453C266.849 137.682 267.438 137.797 268.094 137.797C268.906 137.797 269.661 137.641 270.359 137.328C271.068 137.005 271.677 136.521 272.188 135.875L274.375 138.25C274.021 138.76 273.536 139.25 272.922 139.719C272.318 140.188 271.589 140.573 270.734 140.875C269.88 141.167 268.906 141.312 267.812 141.312ZM281.812 127.781V141H277.312V124.094H281.547L281.812 127.781ZM286.906 123.984L286.828 128.156C286.609 128.125 286.344 128.099 286.031 128.078C285.729 128.047 285.453 128.031 285.203 128.031C284.568 128.031 284.016 128.115 283.547 128.281C283.089 128.438 282.703 128.672 282.391 128.984C282.089 129.297 281.859 129.677 281.703 130.125C281.557 130.573 281.474 131.083 281.453 131.656L280.547 131.375C280.547 130.281 280.656 129.276 280.875 128.359C281.094 127.432 281.411 126.625 281.828 125.938C282.255 125.25 282.776 124.719 283.391 124.344C284.005 123.969 284.708 123.781 285.5 123.781C285.75 123.781 286.005 123.802 286.266 123.844C286.526 123.875 286.74 123.922 286.906 123.984ZM290.828 137.203L290.812 140.219C290.812 141.375 290.521 142.542 289.938 143.719C289.365 144.896 288.635 145.859 287.75 146.609L285.406 145.406C285.667 144.927 285.922 144.448 286.172 143.969C286.422 143.49 286.63 142.964 286.797 142.391C286.964 141.818 287.047 141.167 287.047 140.438V137.203H290.828ZM308.141 141H303.609V122.594C303.609 121.312 303.859 120.234 304.359 119.359C304.87 118.474 305.583 117.807 306.5 117.359C307.427 116.901 308.526 116.672 309.797 116.672C310.214 116.672 310.615 116.703 311 116.766C311.385 116.818 311.76 116.885 312.125 116.969L312.078 120.359C311.88 120.307 311.672 120.271 311.453 120.25C311.234 120.229 310.979 120.219 310.688 120.219C310.146 120.219 309.682 120.312 309.297 120.5C308.922 120.677 308.635 120.943 308.438 121.297C308.24 121.651 308.141 122.083 308.141 122.594V141ZM311.516 124.094V127.281H301.094V124.094H311.516ZM323.875 136.953V124.094H328.375V141H324.141L323.875 136.953ZM324.375 133.484L325.703 133.453C325.703 134.578 325.573 135.625 325.312 136.594C325.052 137.552 324.661 138.385 324.141 139.094C323.62 139.792 322.964 140.339 322.172 140.734C321.38 141.12 320.448 141.312 319.375 141.312C318.552 141.312 317.792 141.198 317.094 140.969C316.406 140.729 315.812 140.359 315.312 139.859C314.823 139.349 314.438 138.698 314.156 137.906C313.885 137.104 313.75 136.141 313.75 135.016V124.094H318.25V135.047C318.25 135.547 318.307 135.969 318.422 136.312C318.547 136.656 318.719 136.938 318.938 137.156C319.156 137.375 319.411 137.531 319.703 137.625C320.005 137.719 320.339 137.766 320.703 137.766C321.63 137.766 322.359 137.578 322.891 137.203C323.432 136.828 323.812 136.318 324.031 135.672C324.26 135.016 324.375 134.286 324.375 133.484ZM336.562 117V141H332.047V117H336.562ZM345.031 117V141H340.516V117H345.031ZM357.625 129.469V133H348.797V129.469H357.625ZM370.516 136.328C370.516 136.005 370.422 135.714 370.234 135.453C370.047 135.193 369.698 134.953 369.188 134.734C368.688 134.505 367.964 134.297 367.016 134.109C366.161 133.922 365.365 133.688 364.625 133.406C363.896 133.115 363.26 132.766 362.719 132.359C362.188 131.953 361.771 131.474 361.469 130.922C361.167 130.359 361.016 129.719 361.016 129C361.016 128.292 361.167 127.625 361.469 127C361.781 126.375 362.224 125.823 362.797 125.344C363.38 124.854 364.089 124.474 364.922 124.203C365.766 123.922 366.714 123.781 367.766 123.781C369.234 123.781 370.495 124.016 371.547 124.484C372.609 124.953 373.422 125.599 373.984 126.422C374.557 127.234 374.844 128.161 374.844 129.203H370.344C370.344 128.766 370.25 128.375 370.062 128.031C369.885 127.677 369.604 127.401 369.219 127.203C368.844 126.995 368.354 126.891 367.75 126.891C367.25 126.891 366.818 126.979 366.453 127.156C366.089 127.323 365.807 127.552 365.609 127.844C365.422 128.125 365.328 128.438 365.328 128.781C365.328 129.042 365.38 129.276 365.484 129.484C365.599 129.682 365.781 129.865 366.031 130.031C366.281 130.198 366.604 130.354 367 130.5C367.406 130.635 367.906 130.76 368.5 130.875C369.719 131.125 370.807 131.453 371.766 131.859C372.724 132.255 373.484 132.797 374.047 133.484C374.609 134.161 374.891 135.052 374.891 136.156C374.891 136.906 374.724 137.594 374.391 138.219C374.057 138.844 373.578 139.391 372.953 139.859C372.328 140.318 371.578 140.677 370.703 140.938C369.839 141.188 368.865 141.312 367.781 141.312C366.208 141.312 364.875 141.031 363.781 140.469C362.698 139.906 361.875 139.193 361.312 138.328C360.76 137.453 360.484 136.557 360.484 135.641H364.75C364.771 136.255 364.927 136.75 365.219 137.125C365.521 137.5 365.901 137.771 366.359 137.938C366.828 138.104 367.333 138.188 367.875 138.188C368.458 138.188 368.943 138.109 369.328 137.953C369.714 137.786 370.005 137.568 370.203 137.297C370.411 137.016 370.516 136.693 370.516 136.328ZM386.094 124.094V127.281H376.25V124.094H386.094ZM378.688 119.922H383.188V135.906C383.188 136.396 383.25 136.771 383.375 137.031C383.51 137.292 383.708 137.474 383.969 137.578C384.229 137.672 384.557 137.719 384.953 137.719C385.234 137.719 385.484 137.708 385.703 137.688C385.932 137.656 386.125 137.625 386.281 137.594L386.297 140.906C385.911 141.031 385.495 141.13 385.047 141.203C384.599 141.276 384.104 141.312 383.562 141.312C382.573 141.312 381.708 141.151 380.969 140.828C380.24 140.495 379.677 139.964 379.281 139.234C378.885 138.505 378.688 137.547 378.688 136.359V119.922ZM397.781 137.188V129.656C397.781 129.115 397.693 128.651 397.516 128.266C397.339 127.87 397.062 127.562 396.688 127.344C396.323 127.125 395.849 127.016 395.266 127.016C394.766 127.016 394.333 127.104 393.969 127.281C393.604 127.448 393.323 127.693 393.125 128.016C392.927 128.328 392.828 128.698 392.828 129.125H388.328C388.328 128.406 388.495 127.724 388.828 127.078C389.161 126.432 389.646 125.865 390.281 125.375C390.917 124.875 391.672 124.484 392.547 124.203C393.432 123.922 394.422 123.781 395.516 123.781C396.828 123.781 397.995 124 399.016 124.438C400.036 124.875 400.839 125.531 401.422 126.406C402.016 127.281 402.312 128.375 402.312 129.688V136.922C402.312 137.849 402.37 138.609 402.484 139.203C402.599 139.786 402.766 140.297 402.984 140.734V141H398.438C398.219 140.542 398.052 139.969 397.938 139.281C397.833 138.583 397.781 137.885 397.781 137.188ZM398.375 130.703L398.406 133.25H395.891C395.297 133.25 394.781 133.318 394.344 133.453C393.906 133.589 393.547 133.781 393.266 134.031C392.984 134.271 392.776 134.552 392.641 134.875C392.516 135.198 392.453 135.552 392.453 135.938C392.453 136.323 392.542 136.672 392.719 136.984C392.896 137.286 393.151 137.526 393.484 137.703C393.818 137.87 394.208 137.953 394.656 137.953C395.333 137.953 395.922 137.818 396.422 137.547C396.922 137.276 397.307 136.943 397.578 136.547C397.859 136.151 398.005 135.776 398.016 135.422L399.203 137.328C399.036 137.755 398.807 138.198 398.516 138.656C398.234 139.115 397.875 139.547 397.438 139.953C397 140.349 396.474 140.677 395.859 140.938C395.245 141.188 394.516 141.312 393.672 141.312C392.599 141.312 391.625 141.099 390.75 140.672C389.885 140.234 389.198 139.635 388.688 138.875C388.188 138.104 387.938 137.229 387.938 136.25C387.938 135.365 388.104 134.578 388.438 133.891C388.771 133.203 389.26 132.625 389.906 132.156C390.562 131.677 391.38 131.318 392.359 131.078C393.339 130.828 394.474 130.703 395.766 130.703H398.375ZM412.766 137.797C413.318 137.797 413.807 137.693 414.234 137.484C414.661 137.266 414.995 136.964 415.234 136.578C415.484 136.182 415.615 135.719 415.625 135.188H419.859C419.849 136.375 419.531 137.432 418.906 138.359C418.281 139.276 417.443 140 416.391 140.531C415.339 141.052 414.161 141.312 412.859 141.312C411.547 141.312 410.401 141.094 409.422 140.656C408.453 140.219 407.646 139.615 407 138.844C406.354 138.062 405.87 137.156 405.547 136.125C405.224 135.083 405.062 133.969 405.062 132.781V132.328C405.062 131.13 405.224 130.016 405.547 128.984C405.87 127.943 406.354 127.036 407 126.266C407.646 125.484 408.453 124.875 409.422 124.438C410.391 124 411.526 123.781 412.828 123.781C414.214 123.781 415.427 124.047 416.469 124.578C417.521 125.109 418.344 125.87 418.938 126.859C419.542 127.839 419.849 129 419.859 130.344H415.625C415.615 129.781 415.495 129.271 415.266 128.812C415.047 128.354 414.724 127.99 414.297 127.719C413.88 127.438 413.365 127.297 412.75 127.297C412.094 127.297 411.557 127.438 411.141 127.719C410.724 127.99 410.401 128.365 410.172 128.844C409.943 129.312 409.781 129.849 409.688 130.453C409.604 131.047 409.562 131.672 409.562 132.328V132.781C409.562 133.438 409.604 134.068 409.688 134.672C409.771 135.276 409.927 135.812 410.156 136.281C410.396 136.75 410.724 137.12 411.141 137.391C411.557 137.661 412.099 137.797 412.766 137.797ZM426.969 116.984V141H422.469V116.984H426.969ZM437.625 124.094L430.281 132.469L426.344 136.453L424.703 133.203L427.828 129.234L432.219 124.094H437.625ZM432.953 141L427.953 133.188L431.062 130.469L438.141 141H432.953ZM457.516 137.312V117H462.047V141H457.969L457.516 137.312ZM446.828 132.75V132.422C446.828 131.13 446.974 129.958 447.266 128.906C447.557 127.844 447.984 126.932 448.547 126.172C449.109 125.411 449.802 124.823 450.625 124.406C451.448 123.99 452.385 123.781 453.438 123.781C454.427 123.781 455.292 123.99 456.031 124.406C456.781 124.823 457.417 125.417 457.938 126.188C458.469 126.948 458.896 127.849 459.219 128.891C459.542 129.922 459.776 131.052 459.922 132.281V133C459.776 134.177 459.542 135.271 459.219 136.281C458.896 137.292 458.469 138.177 457.938 138.938C457.417 139.688 456.781 140.271 456.031 140.688C455.281 141.104 454.406 141.312 453.406 141.312C452.354 141.312 451.417 141.099 450.594 140.672C449.781 140.245 449.094 139.646 448.531 138.875C447.979 138.104 447.557 137.198 447.266 136.156C446.974 135.115 446.828 133.979 446.828 132.75ZM451.328 132.422V132.75C451.328 133.448 451.38 134.099 451.484 134.703C451.599 135.307 451.781 135.844 452.031 136.312C452.292 136.771 452.625 137.13 453.031 137.391C453.448 137.641 453.953 137.766 454.547 137.766C455.318 137.766 455.953 137.594 456.453 137.25C456.953 136.896 457.333 136.411 457.594 135.797C457.865 135.182 458.021 134.474 458.062 133.672V131.625C458.031 130.969 457.938 130.38 457.781 129.859C457.635 129.328 457.417 128.875 457.125 128.5C456.844 128.125 456.49 127.833 456.062 127.625C455.646 127.417 455.151 127.312 454.578 127.312C453.995 127.312 453.495 127.448 453.078 127.719C452.661 127.979 452.323 128.339 452.062 128.797C451.812 129.255 451.625 129.797 451.5 130.422C451.385 131.036 451.328 131.703 451.328 132.422ZM473.344 141.312C472.031 141.312 470.854 141.104 469.812 140.688C468.771 140.26 467.885 139.672 467.156 138.922C466.438 138.172 465.885 137.302 465.5 136.312C465.115 135.312 464.922 134.25 464.922 133.125V132.5C464.922 131.219 465.104 130.047 465.469 128.984C465.833 127.922 466.354 127 467.031 126.219C467.719 125.438 468.552 124.839 469.531 124.422C470.51 123.995 471.615 123.781 472.844 123.781C474.042 123.781 475.104 123.979 476.031 124.375C476.958 124.771 477.734 125.333 478.359 126.062C478.995 126.792 479.474 127.667 479.797 128.688C480.12 129.698 480.281 130.823 480.281 132.062V133.938H466.844V130.938H475.859V130.594C475.859 129.969 475.745 129.411 475.516 128.922C475.297 128.422 474.964 128.026 474.516 127.734C474.068 127.443 473.495 127.297 472.797 127.297C472.203 127.297 471.693 127.427 471.266 127.688C470.839 127.948 470.49 128.312 470.219 128.781C469.958 129.25 469.76 129.802 469.625 130.438C469.5 131.062 469.438 131.75 469.438 132.5V133.125C469.438 133.802 469.531 134.427 469.719 135C469.917 135.573 470.193 136.068 470.547 136.484C470.911 136.901 471.349 137.224 471.859 137.453C472.38 137.682 472.969 137.797 473.625 137.797C474.438 137.797 475.193 137.641 475.891 137.328C476.599 137.005 477.208 136.521 477.719 135.875L479.906 138.25C479.552 138.76 479.068 139.25 478.453 139.719C477.849 140.188 477.12 140.573 476.266 140.875C475.411 141.167 474.438 141.312 473.344 141.312ZM488.375 137.719L492.125 124.094H496.828L491.125 141H488.281L488.375 137.719ZM485.797 124.094L489.562 137.734L489.641 141H486.781L481.078 124.094H485.797ZM506.406 141.312C505.094 141.312 503.917 141.104 502.875 140.688C501.833 140.26 500.948 139.672 500.219 138.922C499.5 138.172 498.948 137.302 498.562 136.312C498.177 135.312 497.984 134.25 497.984 133.125V132.5C497.984 131.219 498.167 130.047 498.531 128.984C498.896 127.922 499.417 127 500.094 126.219C500.781 125.438 501.615 124.839 502.594 124.422C503.573 123.995 504.677 123.781 505.906 123.781C507.104 123.781 508.167 123.979 509.094 124.375C510.021 124.771 510.797 125.333 511.422 126.062C512.057 126.792 512.536 127.667 512.859 128.688C513.182 129.698 513.344 130.823 513.344 132.062V133.938H499.906V130.938H508.922V130.594C508.922 129.969 508.807 129.411 508.578 128.922C508.359 128.422 508.026 128.026 507.578 127.734C507.13 127.443 506.557 127.297 505.859 127.297C505.266 127.297 504.755 127.427 504.328 127.688C503.901 127.948 503.552 128.312 503.281 128.781C503.021 129.25 502.823 129.802 502.688 130.438C502.562 131.062 502.5 131.75 502.5 132.5V133.125C502.5 133.802 502.594 134.427 502.781 135C502.979 135.573 503.255 136.068 503.609 136.484C503.974 136.901 504.411 137.224 504.922 137.453C505.443 137.682 506.031 137.797 506.688 137.797C507.5 137.797 508.255 137.641 508.953 137.328C509.661 137.005 510.271 136.521 510.781 135.875L512.969 138.25C512.615 138.76 512.13 139.25 511.516 139.719C510.911 140.188 510.182 140.573 509.328 140.875C508.474 141.167 507.5 141.312 506.406 141.312ZM520.656 117V141H516.141V117H520.656ZM523.656 132.719V132.391C523.656 131.151 523.833 130.01 524.188 128.969C524.542 127.917 525.057 127.005 525.734 126.234C526.411 125.464 527.245 124.865 528.234 124.438C529.224 124 530.359 123.781 531.641 123.781C532.922 123.781 534.062 124 535.062 124.438C536.062 124.865 536.901 125.464 537.578 126.234C538.266 127.005 538.786 127.917 539.141 128.969C539.495 130.01 539.672 131.151 539.672 132.391V132.719C539.672 133.948 539.495 135.089 539.141 136.141C538.786 137.182 538.266 138.094 537.578 138.875C536.901 139.646 536.068 140.245 535.078 140.672C534.089 141.099 532.953 141.312 531.672 141.312C530.391 141.312 529.25 141.099 528.25 140.672C527.26 140.245 526.422 139.646 525.734 138.875C525.057 138.094 524.542 137.182 524.188 136.141C523.833 135.089 523.656 133.948 523.656 132.719ZM528.156 132.391V132.719C528.156 133.427 528.219 134.089 528.344 134.703C528.469 135.318 528.667 135.859 528.938 136.328C529.219 136.786 529.583 137.146 530.031 137.406C530.479 137.667 531.026 137.797 531.672 137.797C532.297 137.797 532.833 137.667 533.281 137.406C533.729 137.146 534.089 136.786 534.359 136.328C534.63 135.859 534.828 135.318 534.953 134.703C535.089 134.089 535.156 133.427 535.156 132.719V132.391C535.156 131.703 535.089 131.057 534.953 130.453C534.828 129.839 534.625 129.297 534.344 128.828C534.073 128.349 533.714 127.974 533.266 127.703C532.818 127.432 532.276 127.297 531.641 127.297C531.005 127.297 530.464 127.432 530.016 127.703C529.578 127.974 529.219 128.349 528.938 128.828C528.667 129.297 528.469 129.839 528.344 130.453C528.219 131.057 528.156 131.703 528.156 132.391ZM546.938 127.344V147.5H542.438V124.094H546.609L546.938 127.344ZM557.641 132.359V132.688C557.641 133.917 557.495 135.057 557.203 136.109C556.922 137.161 556.505 138.078 555.953 138.859C555.401 139.63 554.714 140.234 553.891 140.672C553.078 141.099 552.141 141.312 551.078 141.312C550.047 141.312 549.151 141.104 548.391 140.688C547.63 140.271 546.99 139.688 546.469 138.938C545.958 138.177 545.547 137.297 545.234 136.297C544.922 135.297 544.682 134.224 544.516 133.078V132.219C544.682 130.99 544.922 129.865 545.234 128.844C545.547 127.812 545.958 126.922 546.469 126.172C546.99 125.411 547.625 124.823 548.375 124.406C549.135 123.99 550.026 123.781 551.047 123.781C552.12 123.781 553.062 123.984 553.875 124.391C554.698 124.797 555.385 125.38 555.938 126.141C556.5 126.901 556.922 127.807 557.203 128.859C557.495 129.911 557.641 131.078 557.641 132.359ZM553.125 132.688V132.359C553.125 131.641 553.062 130.979 552.938 130.375C552.823 129.76 552.635 129.224 552.375 128.766C552.125 128.307 551.792 127.953 551.375 127.703C550.969 127.443 550.474 127.312 549.891 127.312C549.276 127.312 548.75 127.411 548.312 127.609C547.885 127.807 547.536 128.094 547.266 128.469C546.995 128.844 546.792 129.292 546.656 129.812C546.521 130.333 546.438 130.922 546.406 131.578V133.75C546.458 134.521 546.604 135.214 546.844 135.828C547.083 136.432 547.453 136.911 547.953 137.266C548.453 137.62 549.109 137.797 549.922 137.797C550.516 137.797 551.016 137.667 551.422 137.406C551.828 137.135 552.156 136.766 552.406 136.297C552.667 135.828 552.849 135.286 552.953 134.672C553.068 134.057 553.125 133.396 553.125 132.688ZM568.219 141.312C566.906 141.312 565.729 141.104 564.688 140.688C563.646 140.26 562.76 139.672 562.031 138.922C561.312 138.172 560.76 137.302 560.375 136.312C559.99 135.312 559.797 134.25 559.797 133.125V132.5C559.797 131.219 559.979 130.047 560.344 128.984C560.708 127.922 561.229 127 561.906 126.219C562.594 125.438 563.427 124.839 564.406 124.422C565.385 123.995 566.49 123.781 567.719 123.781C568.917 123.781 569.979 123.979 570.906 124.375C571.833 124.771 572.609 125.333 573.234 126.062C573.87 126.792 574.349 127.667 574.672 128.688C574.995 129.698 575.156 130.823 575.156 132.062V133.938H561.719V130.938H570.734V130.594C570.734 129.969 570.62 129.411 570.391 128.922C570.172 128.422 569.839 128.026 569.391 127.734C568.943 127.443 568.37 127.297 567.672 127.297C567.078 127.297 566.568 127.427 566.141 127.688C565.714 127.948 565.365 128.312 565.094 128.781C564.833 129.25 564.635 129.802 564.5 130.438C564.375 131.062 564.312 131.75 564.312 132.5V133.125C564.312 133.802 564.406 134.427 564.594 135C564.792 135.573 565.068 136.068 565.422 136.484C565.786 136.901 566.224 137.224 566.734 137.453C567.255 137.682 567.844 137.797 568.5 137.797C569.312 137.797 570.068 137.641 570.766 137.328C571.474 137.005 572.083 136.521 572.594 135.875L574.781 138.25C574.427 138.76 573.943 139.25 573.328 139.719C572.724 140.188 571.995 140.573 571.141 140.875C570.286 141.167 569.312 141.312 568.219 141.312ZM582.219 127.781V141H577.719V124.094H581.953L582.219 127.781ZM587.312 123.984L587.234 128.156C587.016 128.125 586.75 128.099 586.438 128.078C586.135 128.047 585.859 128.031 585.609 128.031C584.974 128.031 584.422 128.115 583.953 128.281C583.495 128.438 583.109 128.672 582.797 128.984C582.495 129.297 582.266 129.677 582.109 130.125C581.964 130.573 581.88 131.083 581.859 131.656L580.953 131.375C580.953 130.281 581.062 129.276 581.281 128.359C581.5 127.432 581.818 126.625 582.234 125.938C582.661 125.25 583.182 124.719 583.797 124.344C584.411 123.969 585.115 123.781 585.906 123.781C586.156 123.781 586.411 123.802 586.672 123.844C586.932 123.875 587.146 123.922 587.312 123.984ZM32.3281 166.828L36.7031 164C37.349 163.573 37.7812 163.161 38 162.766C38.2188 162.37 38.3281 161.927 38.3281 161.438C38.3281 160.948 38.1458 160.495 37.7812 160.078C37.4167 159.651 36.9062 159.438 36.25 159.438C35.7812 159.438 35.3854 159.547 35.0625 159.766C34.7396 159.974 34.4948 160.255 34.3281 160.609C34.1719 160.964 34.0938 161.359 34.0938 161.797C34.0938 162.266 34.2188 162.745 34.4688 163.234C34.7188 163.714 35.0573 164.224 35.4844 164.766C35.9115 165.297 36.3854 165.875 36.9062 166.5L47.6406 179H42.5312L33.7812 168.875C33.0417 167.958 32.3958 167.12 31.8438 166.359C31.2917 165.589 30.8594 164.839 30.5469 164.109C30.2344 163.38 30.0781 162.63 30.0781 161.859C30.0781 160.672 30.3333 159.635 30.8438 158.75C31.3542 157.854 32.0729 157.161 33 156.672C33.9271 156.172 35.0156 155.922 36.2656 155.922C37.4427 155.922 38.4635 156.167 39.3281 156.656C40.1927 157.135 40.8594 157.771 41.3281 158.562C41.8073 159.354 42.0469 160.224 42.0469 161.172C42.0469 161.88 41.9167 162.536 41.6562 163.141C41.3958 163.734 41.0365 164.286 40.5781 164.797C40.1198 165.297 39.5938 165.76 39 166.188L34.0156 169.734C33.6302 170.089 33.3385 170.438 33.1406 170.781C32.9427 171.125 32.8073 171.453 32.7344 171.766C32.6615 172.068 32.625 172.359 32.625 172.641C32.625 173.245 32.7552 173.786 33.0156 174.266C33.276 174.745 33.6406 175.12 34.1094 175.391C34.5781 175.661 35.125 175.797 35.75 175.797C36.6042 175.797 37.4323 175.609 38.2344 175.234C39.0365 174.859 39.7552 174.323 40.3906 173.625C41.026 172.917 41.5312 172.078 41.9062 171.109C42.2812 170.141 42.4688 169.073 42.4688 167.906H46.2812C46.2812 169.073 46.1667 170.182 45.9375 171.234C45.7083 172.276 45.3385 173.245 44.8281 174.141C44.3177 175.026 43.6406 175.812 42.7969 176.5C42.7344 176.552 42.6458 176.63 42.5312 176.734C42.4271 176.828 42.3385 176.901 42.2656 176.953C41.2656 177.755 40.224 178.354 39.1406 178.75C38.0573 179.135 36.849 179.328 35.5156 179.328C33.9948 179.328 32.6771 179.052 31.5625 178.5C30.4583 177.948 29.6042 177.188 29 176.219C28.4062 175.25 28.1094 174.141 28.1094 172.891C28.1094 171.974 28.2865 171.177 28.6406 170.5C29.0052 169.812 29.5052 169.177 30.1406 168.594C30.776 168.01 31.5052 167.422 32.3281 166.828ZM66.0625 162.094V165.281H56.2188V162.094H66.0625ZM58.6562 157.922H63.1562V173.906C63.1562 174.396 63.2188 174.771 63.3438 175.031C63.4792 175.292 63.6771 175.474 63.9375 175.578C64.1979 175.672 64.526 175.719 64.9219 175.719C65.2031 175.719 65.4531 175.708 65.6719 175.688C65.901 175.656 66.0938 175.625 66.25 175.594L66.2656 178.906C65.8802 179.031 65.4635 179.13 65.0156 179.203C64.5677 179.276 64.0729 179.312 63.5312 179.312C62.5417 179.312 61.6771 179.151 60.9375 178.828C60.2083 178.495 59.6458 177.964 59.25 177.234C58.8542 176.505 58.6562 175.547 58.6562 174.359V157.922ZM76.4062 179.312C75.0938 179.312 73.9167 179.104 72.875 178.688C71.8333 178.26 70.9479 177.672 70.2188 176.922C69.5 176.172 68.9479 175.302 68.5625 174.312C68.1771 173.312 67.9844 172.25 67.9844 171.125V170.5C67.9844 169.219 68.1667 168.047 68.5312 166.984C68.8958 165.922 69.4167 165 70.0938 164.219C70.7812 163.438 71.6146 162.839 72.5938 162.422C73.5729 161.995 74.6771 161.781 75.9062 161.781C77.1042 161.781 78.1667 161.979 79.0938 162.375C80.0208 162.771 80.7969 163.333 81.4219 164.062C82.0573 164.792 82.5365 165.667 82.8594 166.688C83.1823 167.698 83.3438 168.823 83.3438 170.062V171.938H69.9062V168.938H78.9219V168.594C78.9219 167.969 78.8073 167.411 78.5781 166.922C78.3594 166.422 78.026 166.026 77.5781 165.734C77.1302 165.443 76.5573 165.297 75.8594 165.297C75.2656 165.297 74.7552 165.427 74.3281 165.688C73.901 165.948 73.5521 166.312 73.2812 166.781C73.0208 167.25 72.8229 167.802 72.6875 168.438C72.5625 169.062 72.5 169.75 72.5 170.5V171.125C72.5 171.802 72.5938 172.427 72.7812 173C72.9792 173.573 73.2552 174.068 73.6094 174.484C73.974 174.901 74.4115 175.224 74.9219 175.453C75.4427 175.682 76.0312 175.797 76.6875 175.797C77.5 175.797 78.2552 175.641 78.9531 175.328C79.6615 175.005 80.2708 174.521 80.7812 173.875L82.9688 176.25C82.6146 176.76 82.1302 177.25 81.5156 177.719C80.9115 178.188 80.1823 178.573 79.3281 178.875C78.474 179.167 77.5 179.312 76.4062 179.312ZM92.8906 175.797C93.4427 175.797 93.9323 175.693 94.3594 175.484C94.7865 175.266 95.1198 174.964 95.3594 174.578C95.6094 174.182 95.7396 173.719 95.75 173.188H99.9844C99.974 174.375 99.6562 175.432 99.0312 176.359C98.4062 177.276 97.5677 178 96.5156 178.531C95.4635 179.052 94.2865 179.312 92.9844 179.312C91.6719 179.312 90.526 179.094 89.5469 178.656C88.5781 178.219 87.7708 177.615 87.125 176.844C86.4792 176.062 85.9948 175.156 85.6719 174.125C85.349 173.083 85.1875 171.969 85.1875 170.781V170.328C85.1875 169.13 85.349 168.016 85.6719 166.984C85.9948 165.943 86.4792 165.036 87.125 164.266C87.7708 163.484 88.5781 162.875 89.5469 162.438C90.5156 162 91.651 161.781 92.9531 161.781C94.3385 161.781 95.5521 162.047 96.5938 162.578C97.6458 163.109 98.4688 163.87 99.0625 164.859C99.6667 165.839 99.974 167 99.9844 168.344H95.75C95.7396 167.781 95.6198 167.271 95.3906 166.812C95.1719 166.354 94.849 165.99 94.4219 165.719C94.0052 165.438 93.4896 165.297 92.875 165.297C92.2188 165.297 91.6823 165.438 91.2656 165.719C90.849 165.99 90.526 166.365 90.2969 166.844C90.0677 167.312 89.9062 167.849 89.8125 168.453C89.7292 169.047 89.6875 169.672 89.6875 170.328V170.781C89.6875 171.438 89.7292 172.068 89.8125 172.672C89.8958 173.276 90.0521 173.812 90.2812 174.281C90.5208 174.75 90.849 175.12 91.2656 175.391C91.6823 175.661 92.224 175.797 92.8906 175.797ZM106.984 155V179H102.484V155H106.984ZM106.344 169.953H105.109C105.12 168.776 105.276 167.693 105.578 166.703C105.88 165.703 106.312 164.839 106.875 164.109C107.438 163.37 108.109 162.797 108.891 162.391C109.682 161.984 110.557 161.781 111.516 161.781C112.349 161.781 113.104 161.901 113.781 162.141C114.469 162.37 115.057 162.745 115.547 163.266C116.047 163.776 116.432 164.448 116.703 165.281C116.974 166.115 117.109 167.125 117.109 168.312V179H112.578V168.281C112.578 167.531 112.469 166.943 112.25 166.516C112.042 166.078 111.734 165.771 111.328 165.594C110.932 165.406 110.443 165.312 109.859 165.312C109.214 165.312 108.661 165.432 108.203 165.672C107.755 165.911 107.396 166.245 107.125 166.672C106.854 167.089 106.656 167.578 106.531 168.141C106.406 168.703 106.344 169.307 106.344 169.953ZM124.938 165.703V179H120.438V162.094H124.656L124.938 165.703ZM124.281 169.953H123.062C123.062 168.703 123.224 167.578 123.547 166.578C123.87 165.568 124.323 164.708 124.906 164C125.49 163.281 126.182 162.734 126.984 162.359C127.797 161.974 128.703 161.781 129.703 161.781C130.495 161.781 131.219 161.896 131.875 162.125C132.531 162.354 133.094 162.719 133.562 163.219C134.042 163.719 134.406 164.38 134.656 165.203C134.917 166.026 135.047 167.031 135.047 168.219V179H130.516V168.203C130.516 167.453 130.411 166.87 130.203 166.453C129.995 166.036 129.688 165.745 129.281 165.578C128.885 165.401 128.396 165.312 127.812 165.312C127.208 165.312 126.682 165.432 126.234 165.672C125.797 165.911 125.432 166.245 125.141 166.672C124.859 167.089 124.646 167.578 124.5 168.141C124.354 168.703 124.281 169.307 124.281 169.953ZM143.219 162.094V179H138.703V162.094H143.219ZM138.422 157.688C138.422 157.031 138.651 156.49 139.109 156.062C139.568 155.635 140.182 155.422 140.953 155.422C141.714 155.422 142.323 155.635 142.781 156.062C143.25 156.49 143.484 157.031 143.484 157.688C143.484 158.344 143.25 158.885 142.781 159.312C142.323 159.74 141.714 159.953 140.953 159.953C140.182 159.953 139.568 159.74 139.109 159.312C138.651 158.885 138.422 158.344 138.422 157.688ZM153.922 175.797C154.474 175.797 154.964 175.693 155.391 175.484C155.818 175.266 156.151 174.964 156.391 174.578C156.641 174.182 156.771 173.719 156.781 173.188H161.016C161.005 174.375 160.688 175.432 160.062 176.359C159.438 177.276 158.599 178 157.547 178.531C156.495 179.052 155.318 179.312 154.016 179.312C152.703 179.312 151.557 179.094 150.578 178.656C149.609 178.219 148.802 177.615 148.156 176.844C147.51 176.062 147.026 175.156 146.703 174.125C146.38 173.083 146.219 171.969 146.219 170.781V170.328C146.219 169.13 146.38 168.016 146.703 166.984C147.026 165.943 147.51 165.036 148.156 164.266C148.802 163.484 149.609 162.875 150.578 162.438C151.547 162 152.682 161.781 153.984 161.781C155.37 161.781 156.583 162.047 157.625 162.578C158.677 163.109 159.5 163.87 160.094 164.859C160.698 165.839 161.005 167 161.016 168.344H156.781C156.771 167.781 156.651 167.271 156.422 166.812C156.203 166.354 155.88 165.99 155.453 165.719C155.036 165.438 154.521 165.297 153.906 165.297C153.25 165.297 152.714 165.438 152.297 165.719C151.88 165.99 151.557 166.365 151.328 166.844C151.099 167.312 150.938 167.849 150.844 168.453C150.76 169.047 150.719 169.672 150.719 170.328V170.781C150.719 171.438 150.76 172.068 150.844 172.672C150.927 173.276 151.083 173.812 151.312 174.281C151.552 174.75 151.88 175.12 152.297 175.391C152.714 175.661 153.255 175.797 153.922 175.797ZM172.75 175.188V167.656C172.75 167.115 172.661 166.651 172.484 166.266C172.307 165.87 172.031 165.562 171.656 165.344C171.292 165.125 170.818 165.016 170.234 165.016C169.734 165.016 169.302 165.104 168.938 165.281C168.573 165.448 168.292 165.693 168.094 166.016C167.896 166.328 167.797 166.698 167.797 167.125H163.297C163.297 166.406 163.464 165.724 163.797 165.078C164.13 164.432 164.615 163.865 165.25 163.375C165.885 162.875 166.641 162.484 167.516 162.203C168.401 161.922 169.391 161.781 170.484 161.781C171.797 161.781 172.964 162 173.984 162.438C175.005 162.875 175.807 163.531 176.391 164.406C176.984 165.281 177.281 166.375 177.281 167.688V174.922C177.281 175.849 177.339 176.609 177.453 177.203C177.568 177.786 177.734 178.297 177.953 178.734V179H173.406C173.188 178.542 173.021 177.969 172.906 177.281C172.802 176.583 172.75 175.885 172.75 175.188ZM173.344 168.703L173.375 171.25H170.859C170.266 171.25 169.75 171.318 169.312 171.453C168.875 171.589 168.516 171.781 168.234 172.031C167.953 172.271 167.745 172.552 167.609 172.875C167.484 173.198 167.422 173.552 167.422 173.938C167.422 174.323 167.51 174.672 167.688 174.984C167.865 175.286 168.12 175.526 168.453 175.703C168.786 175.87 169.177 175.953 169.625 175.953C170.302 175.953 170.891 175.818 171.391 175.547C171.891 175.276 172.276 174.943 172.547 174.547C172.828 174.151 172.974 173.776 172.984 173.422L174.172 175.328C174.005 175.755 173.776 176.198 173.484 176.656C173.203 177.115 172.844 177.547 172.406 177.953C171.969 178.349 171.443 178.677 170.828 178.938C170.214 179.188 169.484 179.312 168.641 179.312C167.568 179.312 166.594 179.099 165.719 178.672C164.854 178.234 164.167 177.635 163.656 176.875C163.156 176.104 162.906 175.229 162.906 174.25C162.906 173.365 163.073 172.578 163.406 171.891C163.74 171.203 164.229 170.625 164.875 170.156C165.531 169.677 166.349 169.318 167.328 169.078C168.307 168.828 169.443 168.703 170.734 168.703H173.344ZM185.5 155V179H180.984V155H185.5ZM206.328 174.328C206.328 174.005 206.234 173.714 206.047 173.453C205.859 173.193 205.51 172.953 205 172.734C204.5 172.505 203.776 172.297 202.828 172.109C201.974 171.922 201.177 171.688 200.438 171.406C199.708 171.115 199.073 170.766 198.531 170.359C198 169.953 197.583 169.474 197.281 168.922C196.979 168.359 196.828 167.719 196.828 167C196.828 166.292 196.979 165.625 197.281 165C197.594 164.375 198.036 163.823 198.609 163.344C199.193 162.854 199.901 162.474 200.734 162.203C201.578 161.922 202.526 161.781 203.578 161.781C205.047 161.781 206.307 162.016 207.359 162.484C208.422 162.953 209.234 163.599 209.797 164.422C210.37 165.234 210.656 166.161 210.656 167.203H206.156C206.156 166.766 206.062 166.375 205.875 166.031C205.698 165.677 205.417 165.401 205.031 165.203C204.656 164.995 204.167 164.891 203.562 164.891C203.062 164.891 202.63 164.979 202.266 165.156C201.901 165.323 201.62 165.552 201.422 165.844C201.234 166.125 201.141 166.438 201.141 166.781C201.141 167.042 201.193 167.276 201.297 167.484C201.411 167.682 201.594 167.865 201.844 168.031C202.094 168.198 202.417 168.354 202.812 168.5C203.219 168.635 203.719 168.76 204.312 168.875C205.531 169.125 206.62 169.453 207.578 169.859C208.536 170.255 209.297 170.797 209.859 171.484C210.422 172.161 210.703 173.052 210.703 174.156C210.703 174.906 210.536 175.594 210.203 176.219C209.87 176.844 209.391 177.391 208.766 177.859C208.141 178.318 207.391 178.677 206.516 178.938C205.651 179.188 204.677 179.312 203.594 179.312C202.021 179.312 200.688 179.031 199.594 178.469C198.51 177.906 197.688 177.193 197.125 176.328C196.573 175.453 196.297 174.557 196.297 173.641H200.562C200.583 174.255 200.74 174.75 201.031 175.125C201.333 175.5 201.714 175.771 202.172 175.938C202.641 176.104 203.146 176.188 203.688 176.188C204.271 176.188 204.755 176.109 205.141 175.953C205.526 175.786 205.818 175.568 206.016 175.297C206.224 175.016 206.328 174.693 206.328 174.328ZM212.906 170.719V170.391C212.906 169.151 213.083 168.01 213.438 166.969C213.792 165.917 214.307 165.005 214.984 164.234C215.661 163.464 216.495 162.865 217.484 162.438C218.474 162 219.609 161.781 220.891 161.781C222.172 161.781 223.312 162 224.312 162.438C225.312 162.865 226.151 163.464 226.828 164.234C227.516 165.005 228.036 165.917 228.391 166.969C228.745 168.01 228.922 169.151 228.922 170.391V170.719C228.922 171.948 228.745 173.089 228.391 174.141C228.036 175.182 227.516 176.094 226.828 176.875C226.151 177.646 225.318 178.245 224.328 178.672C223.339 179.099 222.203 179.312 220.922 179.312C219.641 179.312 218.5 179.099 217.5 178.672C216.51 178.245 215.672 177.646 214.984 176.875C214.307 176.094 213.792 175.182 213.438 174.141C213.083 173.089 212.906 171.948 212.906 170.719ZM217.406 170.391V170.719C217.406 171.427 217.469 172.089 217.594 172.703C217.719 173.318 217.917 173.859 218.188 174.328C218.469 174.786 218.833 175.146 219.281 175.406C219.729 175.667 220.276 175.797 220.922 175.797C221.547 175.797 222.083 175.667 222.531 175.406C222.979 175.146 223.339 174.786 223.609 174.328C223.88 173.859 224.078 173.318 224.203 172.703C224.339 172.089 224.406 171.427 224.406 170.719V170.391C224.406 169.703 224.339 169.057 224.203 168.453C224.078 167.839 223.875 167.297 223.594 166.828C223.323 166.349 222.964 165.974 222.516 165.703C222.068 165.432 221.526 165.297 220.891 165.297C220.255 165.297 219.714 165.432 219.266 165.703C218.828 165.974 218.469 166.349 218.188 166.828C217.917 167.297 217.719 167.839 217.594 168.453C217.469 169.057 217.406 169.703 217.406 170.391ZM236.438 155V179H231.922V155H236.438ZM250.156 174.953V162.094H254.656V179H250.422L250.156 174.953ZM250.656 171.484L251.984 171.453C251.984 172.578 251.854 173.625 251.594 174.594C251.333 175.552 250.943 176.385 250.422 177.094C249.901 177.792 249.245 178.339 248.453 178.734C247.661 179.12 246.729 179.312 245.656 179.312C244.833 179.312 244.073 179.198 243.375 178.969C242.688 178.729 242.094 178.359 241.594 177.859C241.104 177.349 240.719 176.698 240.438 175.906C240.167 175.104 240.031 174.141 240.031 173.016V162.094H244.531V173.047C244.531 173.547 244.589 173.969 244.703 174.312C244.828 174.656 245 174.938 245.219 175.156C245.438 175.375 245.693 175.531 245.984 175.625C246.286 175.719 246.62 175.766 246.984 175.766C247.911 175.766 248.641 175.578 249.172 175.203C249.714 174.828 250.094 174.318 250.312 173.672C250.542 173.016 250.656 172.286 250.656 171.484ZM266.375 162.094V165.281H256.531V162.094H266.375ZM258.969 157.922H263.469V173.906C263.469 174.396 263.531 174.771 263.656 175.031C263.792 175.292 263.99 175.474 264.25 175.578C264.51 175.672 264.839 175.719 265.234 175.719C265.516 175.719 265.766 175.708 265.984 175.688C266.214 175.656 266.406 175.625 266.562 175.594L266.578 178.906C266.193 179.031 265.776 179.13 265.328 179.203C264.88 179.276 264.385 179.312 263.844 179.312C262.854 179.312 261.99 179.151 261.25 178.828C260.521 178.495 259.958 177.964 259.562 177.234C259.167 176.505 258.969 175.547 258.969 174.359V157.922ZM273.688 162.094V179H269.172V162.094H273.688ZM268.891 157.688C268.891 157.031 269.12 156.49 269.578 156.062C270.036 155.635 270.651 155.422 271.422 155.422C272.182 155.422 272.792 155.635 273.25 156.062C273.719 156.49 273.953 157.031 273.953 157.688C273.953 158.344 273.719 158.885 273.25 159.312C272.792 159.74 272.182 159.953 271.422 159.953C270.651 159.953 270.036 159.74 269.578 159.312C269.12 158.885 268.891 158.344 268.891 157.688ZM276.688 170.719V170.391C276.688 169.151 276.865 168.01 277.219 166.969C277.573 165.917 278.089 165.005 278.766 164.234C279.443 163.464 280.276 162.865 281.266 162.438C282.255 162 283.391 161.781 284.672 161.781C285.953 161.781 287.094 162 288.094 162.438C289.094 162.865 289.932 163.464 290.609 164.234C291.297 165.005 291.818 165.917 292.172 166.969C292.526 168.01 292.703 169.151 292.703 170.391V170.719C292.703 171.948 292.526 173.089 292.172 174.141C291.818 175.182 291.297 176.094 290.609 176.875C289.932 177.646 289.099 178.245 288.109 178.672C287.12 179.099 285.984 179.312 284.703 179.312C283.422 179.312 282.281 179.099 281.281 178.672C280.292 178.245 279.453 177.646 278.766 176.875C278.089 176.094 277.573 175.182 277.219 174.141C276.865 173.089 276.688 171.948 276.688 170.719ZM281.188 170.391V170.719C281.188 171.427 281.25 172.089 281.375 172.703C281.5 173.318 281.698 173.859 281.969 174.328C282.25 174.786 282.615 175.146 283.062 175.406C283.51 175.667 284.057 175.797 284.703 175.797C285.328 175.797 285.865 175.667 286.312 175.406C286.76 175.146 287.12 174.786 287.391 174.328C287.661 173.859 287.859 173.318 287.984 172.703C288.12 172.089 288.188 171.427 288.188 170.719V170.391C288.188 169.703 288.12 169.057 287.984 168.453C287.859 167.839 287.656 167.297 287.375 166.828C287.104 166.349 286.745 165.974 286.297 165.703C285.849 165.432 285.307 165.297 284.672 165.297C284.036 165.297 283.495 165.432 283.047 165.703C282.609 165.974 282.25 166.349 281.969 166.828C281.698 167.297 281.5 167.839 281.375 168.453C281.25 169.057 281.188 169.703 281.188 170.391ZM299.875 165.703V179H295.375V162.094H299.594L299.875 165.703ZM299.219 169.953H298C298 168.703 298.161 167.578 298.484 166.578C298.807 165.568 299.26 164.708 299.844 164C300.427 163.281 301.12 162.734 301.922 162.359C302.734 161.974 303.641 161.781 304.641 161.781C305.432 161.781 306.156 161.896 306.812 162.125C307.469 162.354 308.031 162.719 308.5 163.219C308.979 163.719 309.344 164.38 309.594 165.203C309.854 166.026 309.984 167.031 309.984 168.219V179H305.453V168.203C305.453 167.453 305.349 166.87 305.141 166.453C304.932 166.036 304.625 165.745 304.219 165.578C303.823 165.401 303.333 165.312 302.75 165.312C302.146 165.312 301.62 165.432 301.172 165.672C300.734 165.911 300.37 166.245 300.078 166.672C299.797 167.089 299.583 167.578 299.438 168.141C299.292 168.703 299.219 169.307 299.219 169.953ZM330.5 175.188V167.656C330.5 167.115 330.411 166.651 330.234 166.266C330.057 165.87 329.781 165.562 329.406 165.344C329.042 165.125 328.568 165.016 327.984 165.016C327.484 165.016 327.052 165.104 326.688 165.281C326.323 165.448 326.042 165.693 325.844 166.016C325.646 166.328 325.547 166.698 325.547 167.125H321.047C321.047 166.406 321.214 165.724 321.547 165.078C321.88 164.432 322.365 163.865 323 163.375C323.635 162.875 324.391 162.484 325.266 162.203C326.151 161.922 327.141 161.781 328.234 161.781C329.547 161.781 330.714 162 331.734 162.438C332.755 162.875 333.557 163.531 334.141 164.406C334.734 165.281 335.031 166.375 335.031 167.688V174.922C335.031 175.849 335.089 176.609 335.203 177.203C335.318 177.786 335.484 178.297 335.703 178.734V179H331.156C330.938 178.542 330.771 177.969 330.656 177.281C330.552 176.583 330.5 175.885 330.5 175.188ZM331.094 168.703L331.125 171.25H328.609C328.016 171.25 327.5 171.318 327.062 171.453C326.625 171.589 326.266 171.781 325.984 172.031C325.703 172.271 325.495 172.552 325.359 172.875C325.234 173.198 325.172 173.552 325.172 173.938C325.172 174.323 325.26 174.672 325.438 174.984C325.615 175.286 325.87 175.526 326.203 175.703C326.536 175.87 326.927 175.953 327.375 175.953C328.052 175.953 328.641 175.818 329.141 175.547C329.641 175.276 330.026 174.943 330.297 174.547C330.578 174.151 330.724 173.776 330.734 173.422L331.922 175.328C331.755 175.755 331.526 176.198 331.234 176.656C330.953 177.115 330.594 177.547 330.156 177.953C329.719 178.349 329.193 178.677 328.578 178.938C327.964 179.188 327.234 179.312 326.391 179.312C325.318 179.312 324.344 179.099 323.469 178.672C322.604 178.234 321.917 177.635 321.406 176.875C320.906 176.104 320.656 175.229 320.656 174.25C320.656 173.365 320.823 172.578 321.156 171.891C321.49 171.203 321.979 170.625 322.625 170.156C323.281 169.677 324.099 169.318 325.078 169.078C326.057 168.828 327.193 168.703 328.484 168.703H331.094ZM343 165.781V179H338.5V162.094H342.734L343 165.781ZM348.094 161.984L348.016 166.156C347.797 166.125 347.531 166.099 347.219 166.078C346.917 166.047 346.641 166.031 346.391 166.031C345.755 166.031 345.203 166.115 344.734 166.281C344.276 166.438 343.891 166.672 343.578 166.984C343.276 167.297 343.047 167.677 342.891 168.125C342.745 168.573 342.661 169.083 342.641 169.656L341.734 169.375C341.734 168.281 341.844 167.276 342.062 166.359C342.281 165.432 342.599 164.625 343.016 163.938C343.443 163.25 343.964 162.719 344.578 162.344C345.193 161.969 345.896 161.781 346.688 161.781C346.938 161.781 347.193 161.802 347.453 161.844C347.714 161.875 347.927 161.922 348.094 161.984ZM356.891 175.797C357.443 175.797 357.932 175.693 358.359 175.484C358.786 175.266 359.12 174.964 359.359 174.578C359.609 174.182 359.74 173.719 359.75 173.188H363.984C363.974 174.375 363.656 175.432 363.031 176.359C362.406 177.276 361.568 178 360.516 178.531C359.464 179.052 358.286 179.312 356.984 179.312C355.672 179.312 354.526 179.094 353.547 178.656C352.578 178.219 351.771 177.615 351.125 176.844C350.479 176.062 349.995 175.156 349.672 174.125C349.349 173.083 349.188 171.969 349.188 170.781V170.328C349.188 169.13 349.349 168.016 349.672 166.984C349.995 165.943 350.479 165.036 351.125 164.266C351.771 163.484 352.578 162.875 353.547 162.438C354.516 162 355.651 161.781 356.953 161.781C358.339 161.781 359.552 162.047 360.594 162.578C361.646 163.109 362.469 163.87 363.062 164.859C363.667 165.839 363.974 167 363.984 168.344H359.75C359.74 167.781 359.62 167.271 359.391 166.812C359.172 166.354 358.849 165.99 358.422 165.719C358.005 165.438 357.49 165.297 356.875 165.297C356.219 165.297 355.682 165.438 355.266 165.719C354.849 165.99 354.526 166.365 354.297 166.844C354.068 167.312 353.906 167.849 353.812 168.453C353.729 169.047 353.688 169.672 353.688 170.328V170.781C353.688 171.438 353.729 172.068 353.812 172.672C353.896 173.276 354.052 173.812 354.281 174.281C354.521 174.75 354.849 175.12 355.266 175.391C355.682 175.661 356.224 175.797 356.891 175.797ZM370.984 155V179H366.484V155H370.984ZM370.344 169.953H369.109C369.12 168.776 369.276 167.693 369.578 166.703C369.88 165.703 370.312 164.839 370.875 164.109C371.438 163.37 372.109 162.797 372.891 162.391C373.682 161.984 374.557 161.781 375.516 161.781C376.349 161.781 377.104 161.901 377.781 162.141C378.469 162.37 379.057 162.745 379.547 163.266C380.047 163.776 380.432 164.448 380.703 165.281C380.974 166.115 381.109 167.125 381.109 168.312V179H376.578V168.281C376.578 167.531 376.469 166.943 376.25 166.516C376.042 166.078 375.734 165.771 375.328 165.594C374.932 165.406 374.443 165.312 373.859 165.312C373.214 165.312 372.661 165.432 372.203 165.672C371.755 165.911 371.396 166.245 371.125 166.672C370.854 167.089 370.656 167.578 370.531 168.141C370.406 168.703 370.344 169.307 370.344 169.953ZM389.281 162.094V179H384.766V162.094H389.281ZM384.484 157.688C384.484 157.031 384.714 156.49 385.172 156.062C385.63 155.635 386.245 155.422 387.016 155.422C387.776 155.422 388.385 155.635 388.844 156.062C389.312 156.49 389.547 157.031 389.547 157.688C389.547 158.344 389.312 158.885 388.844 159.312C388.385 159.74 387.776 159.953 387.016 159.953C386.245 159.953 385.63 159.74 385.172 159.312C384.714 158.885 384.484 158.344 384.484 157.688ZM401.281 162.094V165.281H391.438V162.094H401.281ZM393.875 157.922H398.375V173.906C398.375 174.396 398.438 174.771 398.562 175.031C398.698 175.292 398.896 175.474 399.156 175.578C399.417 175.672 399.745 175.719 400.141 175.719C400.422 175.719 400.672 175.708 400.891 175.688C401.12 175.656 401.312 175.625 401.469 175.594L401.484 178.906C401.099 179.031 400.682 179.13 400.234 179.203C399.786 179.276 399.292 179.312 398.75 179.312C397.76 179.312 396.896 179.151 396.156 178.828C395.427 178.495 394.865 177.964 394.469 177.234C394.073 176.505 393.875 175.547 393.875 174.359V157.922ZM411.625 179.312C410.312 179.312 409.135 179.104 408.094 178.688C407.052 178.26 406.167 177.672 405.438 176.922C404.719 176.172 404.167 175.302 403.781 174.312C403.396 173.312 403.203 172.25 403.203 171.125V170.5C403.203 169.219 403.385 168.047 403.75 166.984C404.115 165.922 404.635 165 405.312 164.219C406 163.438 406.833 162.839 407.812 162.422C408.792 161.995 409.896 161.781 411.125 161.781C412.323 161.781 413.385 161.979 414.312 162.375C415.24 162.771 416.016 163.333 416.641 164.062C417.276 164.792 417.755 165.667 418.078 166.688C418.401 167.698 418.562 168.823 418.562 170.062V171.938H405.125V168.938H414.141V168.594C414.141 167.969 414.026 167.411 413.797 166.922C413.578 166.422 413.245 166.026 412.797 165.734C412.349 165.443 411.776 165.297 411.078 165.297C410.484 165.297 409.974 165.427 409.547 165.688C409.12 165.948 408.771 166.312 408.5 166.781C408.24 167.25 408.042 167.802 407.906 168.438C407.781 169.062 407.719 169.75 407.719 170.5V171.125C407.719 171.802 407.812 172.427 408 173C408.198 173.573 408.474 174.068 408.828 174.484C409.193 174.901 409.63 175.224 410.141 175.453C410.661 175.682 411.25 175.797 411.906 175.797C412.719 175.797 413.474 175.641 414.172 175.328C414.88 175.005 415.49 174.521 416 173.875L418.188 176.25C417.833 176.76 417.349 177.25 416.734 177.719C416.13 178.188 415.401 178.573 414.547 178.875C413.693 179.167 412.719 179.312 411.625 179.312ZM428.109 175.797C428.661 175.797 429.151 175.693 429.578 175.484C430.005 175.266 430.339 174.964 430.578 174.578C430.828 174.182 430.958 173.719 430.969 173.188H435.203C435.193 174.375 434.875 175.432 434.25 176.359C433.625 177.276 432.786 178 431.734 178.531C430.682 179.052 429.505 179.312 428.203 179.312C426.891 179.312 425.745 179.094 424.766 178.656C423.797 178.219 422.99 177.615 422.344 176.844C421.698 176.062 421.214 175.156 420.891 174.125C420.568 173.083 420.406 171.969 420.406 170.781V170.328C420.406 169.13 420.568 168.016 420.891 166.984C421.214 165.943 421.698 165.036 422.344 164.266C422.99 163.484 423.797 162.875 424.766 162.438C425.734 162 426.87 161.781 428.172 161.781C429.557 161.781 430.771 162.047 431.812 162.578C432.865 163.109 433.688 163.87 434.281 164.859C434.885 165.839 435.193 167 435.203 168.344H430.969C430.958 167.781 430.839 167.271 430.609 166.812C430.391 166.354 430.068 165.99 429.641 165.719C429.224 165.438 428.708 165.297 428.094 165.297C427.438 165.297 426.901 165.438 426.484 165.719C426.068 165.99 425.745 166.365 425.516 166.844C425.286 167.312 425.125 167.849 425.031 168.453C424.948 169.047 424.906 169.672 424.906 170.328V170.781C424.906 171.438 424.948 172.068 425.031 172.672C425.115 173.276 425.271 173.812 425.5 174.281C425.74 174.75 426.068 175.12 426.484 175.391C426.901 175.661 427.443 175.797 428.109 175.797ZM446.094 162.094V165.281H436.25V162.094H446.094ZM438.688 157.922H443.188V173.906C443.188 174.396 443.25 174.771 443.375 175.031C443.51 175.292 443.708 175.474 443.969 175.578C444.229 175.672 444.557 175.719 444.953 175.719C445.234 175.719 445.484 175.708 445.703 175.688C445.932 175.656 446.125 175.625 446.281 175.594L446.297 178.906C445.911 179.031 445.495 179.13 445.047 179.203C444.599 179.276 444.104 179.312 443.562 179.312C442.573 179.312 441.708 179.151 440.969 178.828C440.24 178.495 439.677 177.964 439.281 177.234C438.885 176.505 438.688 175.547 438.688 174.359V157.922Z" fill="#686F91"/>
</g>
<defs>
<clipPath id="clip0_5_2">
<rect width="800" height="249" rx="6" fill="white"/>
</clipPath>
<clipPath id="clip1_5_2">
<rect width="209" height="239" fill="white" transform="matrix(-1 0 0 1 788 22)"/>
</clipPath>
</defs>
</svg>
